<svg width="15" height="26" viewBox="0 0 15 26" fill="none" xmlns="http://www.w3.org/2000/svg">
<path d="M0.585786 22.5858C-0.195262 23.3668 -0.195262 24.6332 0.585786 25.4142C1.36683 26.1953 2.63316 26.1953 3.41421 25.4142L0.585786 22.5858ZM13 13L14.4142 14.4142C14.7893 14.0391 15 13.5304 15 13C15 12.4696 14.7893 11.9609 14.4142 11.5858L13 13ZM3.41422 0.585786C2.63317 -0.195264 1.36684 -0.195264 0.585788 0.585786C-0.19526 1.36683 -0.19526 2.63316 0.585788 3.41421L3.41422 0.585786ZM3.41421 25.4142L14.4142 14.4142L11.5858 11.5858L0.585786 22.5858L3.41421 25.4142ZM14.4142 11.5858L3.41422 0.585786L0.585788 3.41421L11.5858 14.4142L14.4142 11.5858Z" fill="white"/>
</svg>
