<svg width="15" height="26" viewBox="0 0 15 26" fill="none" xmlns="http://www.w3.org/2000/svg">
<path d="M14.4142 3.41421C15.1953 2.63317 15.1953 1.36684 14.4142 0.585786C13.6332 -0.195262 12.3668 -0.195262 11.5858 0.585786L14.4142 3.41421ZM2 13L0.585786 11.5858C0.210714 11.9609 0 12.4696 0 13C0 13.5304 0.210714 14.0391 0.585786 14.4142L2 13ZM11.5858 25.4142C12.3668 26.1953 13.6332 26.1953 14.4142 25.4142C15.1953 24.6332 15.1953 23.3668 14.4142 22.5858L11.5858 25.4142ZM11.5858 0.585786L0.585786 11.5858L3.41421 14.4142L14.4142 3.41421L11.5858 0.585786ZM0.585786 14.4142L11.5858 25.4142L14.4142 22.5858L3.41421 11.5858L0.585786 14.4142Z" fill="white"/>
</svg>
