<svg width="60" height="61" viewBox="0 0 60 61" fill="none" xmlns="http://www.w3.org/2000/svg">
<g filter="url(#filter0_d)">
<path d="M55.3488 51.7985L49.1949 44.0305C51.1627 43.3743 52.8682 42.0855 54.025 40.3866V40.3749V40.3632C55.5635 37.7387 54.8837 34.5987 54.2158 31.5524C53.8223 30.0293 53.5957 28.471 53.5122 26.9127C53.5837 25.3427 53.8223 23.7844 54.2158 22.2613L54.2277 22.2261C54.8837 19.1916 55.5635 16.0633 54.025 13.4622C52.4269 10.7557 49.2664 9.75981 46.2014 8.81078C44.7225 8.41242 43.2794 7.85003 41.9198 7.15876C40.6795 6.37375 39.5346 5.44815 38.4851 4.42882C36.2071 2.34329 33.6311 0 30.3036 0C26.9762 0 24.4001 2.34329 22.1341 4.41711C21.0966 5.44815 19.9397 6.36204 18.6994 7.14704C17.3398 7.83831 15.8967 8.38899 14.4178 8.78735C11.3528 9.73638 8.19233 10.7206 6.59421 13.4388C5.03186 16.075 5.72359 19.215 6.37953 22.2613C6.7731 23.7844 6.9997 25.3427 7.08318 26.9127C7.01162 28.4827 6.7731 30.041 6.37953 31.5641L6.36761 31.5993C5.71166 34.6339 5.03186 37.7622 6.57035 40.3632V40.3749V40.3866C7.7272 42.0972 9.43266 43.3743 11.4005 44.0305L5.27039 51.7985C5.05572 52.068 4.97223 52.396 5.00801 52.7241C5.05572 53.0521 5.22268 53.3568 5.49699 53.5559C5.72359 53.7317 5.99789 53.8254 6.28412 53.8254C6.33183 53.8254 6.39146 53.8254 6.43916 53.8137L13.7023 52.9233L15.4912 59.0744C15.6224 59.5313 16.004 59.8711 16.4811 59.9649C16.5646 59.9766 16.6481 59.9883 16.7196 59.9883C17.1132 59.9883 17.4829 59.8125 17.7333 59.5079L24.2451 51.283C25.9028 52.7827 28.0377 53.6848 30.2917 53.8371H30.3036H30.3156C32.5696 53.6848 34.7044 52.7827 36.3622 51.283L42.8739 59.5079C43.1125 59.8125 43.4941 60 43.8877 60C43.9712 60 44.0546 59.9883 44.1262 59.9766C44.6032 59.8828 44.9849 59.5431 45.1161 59.0861L46.905 52.935L54.1681 53.8254C54.2158 53.8371 54.2755 53.8371 54.3232 53.8371C54.9672 53.8371 55.5158 53.3685 55.5873 52.7358C55.647 52.396 55.5516 52.068 55.3488 51.7985ZM8.78864 39.1095C7.73913 37.3286 8.29966 34.7862 8.88405 32.0914C9.3134 30.4042 9.57577 28.6585 9.64733 26.9127V26.901V26.8893C9.57577 25.1435 9.32532 23.4095 8.88405 21.7106C8.29966 19.0158 7.73913 16.4733 8.78864 14.6924C9.88586 12.8295 12.45 12.0328 15.1692 11.1775C16.827 10.7206 18.437 10.0996 19.9636 9.31459H19.9755H19.9874C21.3947 8.43585 22.6947 7.39309 23.8754 6.24487C25.9863 4.33509 27.9899 2.51904 30.3036 2.51904C32.6293 2.51904 34.621 4.33509 36.7319 6.25659C37.9126 7.41652 39.2245 8.44757 40.6199 9.3263H40.6318H40.6437C42.1703 10.1113 43.7803 10.7323 45.4381 11.1892C48.1573 12.0328 50.7214 12.8412 51.8186 14.7042C52.8682 16.4851 52.3076 19.0275 51.7232 21.7223C51.2939 23.4095 51.0315 25.1552 50.96 26.901V26.9127V26.9244C51.0315 28.6702 51.282 30.4042 51.7232 32.1031C52.3076 34.7979 52.8682 37.3404 51.8186 39.1213C50.7214 40.9842 48.1573 41.7809 45.4381 42.6362C43.7803 43.0931 42.1703 43.7141 40.6437 44.4991H40.6318H40.6199C39.2126 45.3779 37.9126 46.4206 36.7319 47.5688C34.621 49.4903 32.6173 51.3064 30.3036 51.3064C27.978 51.3064 25.9863 49.4903 23.8754 47.5688C22.6947 46.4089 21.3828 45.3779 19.9874 44.4991H19.9755H19.9636C18.437 43.7141 16.827 43.0931 15.1692 42.6362C12.45 41.7809 9.88586 40.9725 8.78864 39.1095ZM13.9885 44.8975L14.4059 45.0264C15.8848 45.4247 17.3279 45.9754 18.6874 46.6667C19.9278 47.4517 21.0727 48.3773 22.1222 49.3966L22.325 49.5723L17.2682 56.0047L15.8728 51.2009C15.7178 50.662 15.205 50.2871 14.6444 50.2871C14.5967 50.2871 14.5371 50.2871 14.4894 50.2988L9.20606 50.9432L13.9885 44.8975ZM38.4731 49.42C39.5227 48.389 40.6795 47.4634 41.9079 46.6784C43.2675 45.9871 44.7106 45.4364 46.1894 45.0381L46.6069 44.9092L51.4012 50.9549L46.1179 50.3105C46.0702 50.2988 46.0105 50.2988 45.9628 50.2988C45.3904 50.2988 44.8895 50.6737 44.7344 51.2127L43.3391 56.0164L38.2704 49.6192L38.4731 49.42Z" fill="white"/>
<path d="M30.3035 45.6238C35.3841 45.6238 40.1665 43.6789 43.7683 40.1405C47.37 36.6021 49.3498 31.9155 49.3498 26.9126C49.3498 21.9214 47.3581 17.2231 43.7683 13.6964C40.1785 10.1698 35.396 8.21313 30.3154 8.21313C25.2348 8.21313 20.4524 10.1581 16.8507 13.6964C13.2489 17.2231 11.2692 21.9214 11.2692 26.9126C11.2692 31.9038 13.2489 36.6021 16.8507 40.1405C20.4524 43.6789 25.2229 45.6238 30.3035 45.6238ZM30.3035 43.1048C25.9027 43.1048 21.7643 41.4176 18.6515 38.3596C15.5388 35.3016 13.8214 31.236 13.8214 26.9126C13.8214 22.5892 15.5388 18.5236 18.6515 15.4656C21.7643 12.4076 25.9027 10.7205 30.3035 10.7205C34.7043 10.7205 38.8427 12.4076 41.9555 15.4656C45.0682 18.5236 46.7856 22.5892 46.7856 26.9126C46.7856 31.236 45.0682 35.3016 41.9555 38.3479C38.8427 41.4176 34.7043 43.093 30.3035 43.1048Z" fill="white"/>
<path d="M36.9941 29.2795L42.027 25.6826C42.5279 25.3194 42.8618 24.7921 42.9573 24.1946C43.0527 23.597 42.9095 22.9878 42.5398 22.4957C42.0986 21.9099 41.4068 21.5584 40.6555 21.5584H34.43L32.4979 15.7353C32.1878 14.798 31.2934 14.1653 30.2915 14.1653C30.0411 14.1653 29.8026 14.2004 29.564 14.2824C28.8604 14.5051 28.3118 15.0557 28.0852 15.7353L26.1531 21.5584H19.9276C18.6396 21.5584 17.602 22.5777 17.602 23.8431C17.602 24.5695 17.9598 25.2608 18.5561 25.6943L23.589 29.2912L21.6689 35.1143C21.478 35.7001 21.5257 36.3094 21.812 36.8601C22.0982 37.399 22.5752 37.8091 23.1596 37.9966C23.3982 38.0669 23.6367 38.1137 23.8752 38.1137C24.3642 38.1137 24.8412 37.9614 25.2467 37.6802L30.2915 34.0833L35.3364 37.6802C35.7299 37.9731 36.207 38.1254 36.7079 38.1254C37.2088 38.1254 37.6739 37.9731 38.0794 37.6802C38.9023 37.1061 39.2482 36.0751 38.9262 35.126L36.9941 29.2795ZM26.332 29.1858C26.499 28.6703 26.3201 28.0962 25.8669 27.7798L20.667 24.0657H27.0953C27.6558 24.0657 28.1448 23.7142 28.3118 23.1987L30.3035 17.1881L32.2952 23.1987C32.4621 23.7142 32.9511 24.0657 33.5116 24.0657H39.9399L34.74 27.7798C34.2868 28.0962 34.108 28.6703 34.2749 29.1858L36.2666 35.1963L31.0668 31.4822C30.8521 31.3299 30.5897 31.2362 30.3154 31.2362C30.0411 31.2362 29.7787 31.3182 29.564 31.4705L24.3642 35.1846L26.332 29.1858Z" fill="white"/>
</g>
<defs>
<filter id="filter0_d" x="0" y="0" width="60" height="61" filterUnits="userSpaceOnUse" color-interpolation-filters="sRGB">
<feFlood flood-opacity="0" result="BackgroundImageFix"/>
<feColorMatrix in="SourceAlpha" type="matrix" values="0 0 0 0 0 0 0 0 0 0 0 0 0 0 0 0 0 0 127 0"/>
<feOffset dy="1"/>
<feColorMatrix type="matrix" values="0 0 0 0 0.370833 0 0 0 0 0.15575 0 0 0 0 0 0 0 0 0.25 0"/>
<feBlend mode="normal" in2="BackgroundImageFix" result="effect1_dropShadow"/>
<feBlend mode="normal" in="SourceGraphic" in2="effect1_dropShadow" result="shape"/>
</filter>
</defs>
</svg>
