<svg width="60" height="61" viewBox="0 0 60 61" fill="none" xmlns="http://www.w3.org/2000/svg">
<g filter="url(#filter0_d)">
<path d="M59.294 27.1745L57.923 24.6199L58.1574 21.456C58.38 19.4288 57.5715 17.4484 55.9895 16.1594L53.7162 14.2962L52.8256 11.601C52.3217 9.53861 50.7632 7.88634 48.7242 7.26528L45.9119 6.42157L43.7557 3.93731C42.4784 2.43738 40.5567 1.66398 38.5997 1.85147L35.6819 2.14443L32.8227 0.703092C31.0532 -0.234364 28.9557 -0.234364 27.1862 0.703092L24.6316 2.07412L21.4677 1.83976C19.4405 1.61711 17.4601 2.42567 16.1711 4.00762L14.3079 6.28095L11.6127 7.17153C9.55033 7.67542 7.89806 9.23393 7.277 11.2729L6.43329 14.0853L3.94903 16.2414C2.4491 17.5187 1.6757 19.4405 1.86319 21.3974L2.15615 24.3152L0.703092 27.1745C-0.234364 28.9439 -0.234364 31.0415 0.703092 32.8109L2.07412 35.3655L1.83976 38.5294C1.61711 40.5567 2.42567 42.537 4.00762 43.826L6.29267 45.7009L7.18325 48.3961C7.68713 50.4585 9.24565 52.1108 11.2846 52.7319L14.097 53.5756L16.2531 56.0598C17.5304 57.5598 19.4522 58.3332 21.4091 58.1457L24.327 57.8527L27.1979 59.294C28.0768 59.7628 29.0494 59.9971 30.022 59.9971C30.9946 59.9971 31.9555 59.7628 32.8461 59.294L35.4007 57.923L38.5646 58.1574C40.5918 58.38 42.5722 57.5715 43.8612 55.9895L45.7244 53.7162L48.4196 52.8256C50.482 52.3217 52.1342 50.7632 52.7553 48.7242L53.599 45.9119L56.0833 43.7557C57.5832 42.4784 58.3566 40.5567 58.1691 38.5997L57.8761 35.6819L59.3175 32.8109C60.2315 31.0532 60.2315 28.9439 59.294 27.1745ZM57.2199 31.7211C57.2199 31.7329 57.2082 31.7446 57.2082 31.7446L55.6145 34.9319C55.5208 35.1311 55.4739 35.3538 55.4974 35.5764L55.8255 38.8341C55.9426 40.0176 55.4622 41.2012 54.5482 41.9746L51.7944 44.3534C51.6304 44.494 51.5014 44.6932 51.4429 44.9041L50.4937 48.0329C50.1187 49.2867 49.0875 50.2476 47.8219 50.5406C47.7868 50.5523 47.7516 50.564 47.7165 50.564L44.6463 51.5835C44.4354 51.6538 44.2479 51.7827 44.1073 51.9585L42.0332 54.5013C41.248 55.4622 40.0293 55.9544 38.7872 55.8137C38.7755 55.8137 38.7521 55.8137 38.7403 55.8137L35.2132 55.5559C34.9905 55.5442 34.7679 55.5911 34.5804 55.6966L31.7211 57.2316C30.6431 57.8058 29.3541 57.8058 28.276 57.2199C28.2643 57.2199 28.2526 57.2082 28.2526 57.2082L25.0652 55.6145C24.9012 55.5325 24.7254 55.4856 24.5379 55.4856C24.5027 55.4856 24.4559 55.4856 24.4207 55.4856L21.1631 55.8137C19.9795 55.9309 18.796 55.4505 18.0226 54.5365L15.6438 51.7827C15.5032 51.6186 15.304 51.4897 15.093 51.4311L11.9643 50.482C10.7104 50.107 9.74953 49.0758 9.45658 47.8102C9.44486 47.7751 9.43314 47.7399 9.43314 47.7048L8.41366 44.6346C8.34335 44.4237 8.21445 44.2362 8.03868 44.0956L5.49583 42.0214C4.53494 41.2363 4.04278 40.0176 4.18339 38.7755C4.18339 38.7638 4.18339 38.7403 4.18339 38.7286L4.44119 35.2014C4.45291 34.9788 4.40604 34.7562 4.30058 34.5687L2.76549 31.7094C2.1913 30.6314 2.1913 29.3424 2.77721 28.2643C2.77721 28.2526 2.78893 28.2408 2.78893 28.2408L4.3826 25.0535C4.47635 24.8543 4.52322 24.6316 4.49979 24.409L4.17168 21.1513C4.05449 19.9678 4.53494 18.7843 5.44896 18.0109L8.20273 15.6321C8.36679 15.4914 8.49569 15.2922 8.55428 15.0813L9.50345 11.9526C9.87844 10.6987 10.9096 9.73782 12.1752 9.44486C12.2104 9.43314 12.2455 9.42143 12.2807 9.42143L15.3508 8.40194C15.5618 8.33163 15.7492 8.20273 15.8899 8.02696L17.964 5.48411C18.7491 4.52322 19.9678 4.03106 21.2099 4.17168C21.2216 4.17168 21.2451 4.17168 21.2568 4.17168L24.784 4.42948C25.0066 4.44119 25.2293 4.39432 25.4168 4.28886L28.276 2.75377C29.3541 2.17958 30.6431 2.17958 31.7211 2.76549C31.7329 2.76549 31.7446 2.77721 31.7446 2.77721L34.9319 4.37089C35.1311 4.46463 35.3538 4.5115 35.5764 4.48807L38.8341 4.15996C40.0176 4.04278 41.2012 4.52322 41.9746 5.43724L44.3534 8.19102C44.494 8.35507 44.6932 8.48397 44.9041 8.54256L48.0329 9.49173C49.2867 9.86672 50.2476 10.8979 50.5406 12.1635C50.5523 12.1986 50.564 12.2338 50.564 12.2689L51.5835 15.3391C51.6538 15.55 51.7827 15.7375 51.9585 15.8781L54.5013 17.9523C55.4622 18.7374 55.9544 19.9561 55.8137 21.1982C55.8137 21.2099 55.8137 21.2334 55.8137 21.2451L55.5559 24.7723C55.5442 24.9949 55.5911 25.2175 55.6966 25.405L57.2316 28.2643C57.7941 29.3658 57.7941 30.6431 57.2199 31.7211Z" fill="white"/>
<path d="M29.9985 8.90589C41.6464 8.90589 51.0913 18.3508 51.0913 29.9986C51.0913 41.6465 41.6464 51.0914 29.9985 51.0914C18.3506 51.0914 8.90579 41.6465 8.90579 29.9986C8.90579 18.3508 18.3506 8.90589 29.9985 8.90589ZM29.9985 6.56226C26.8346 6.56226 23.7645 7.18332 20.8701 8.40201C18.0811 9.58555 15.5734 11.273 13.4173 13.4291C11.2611 15.5853 9.57372 18.0812 8.39019 20.8819C7.18321 23.7646 6.56215 26.8347 6.56215 29.9986C6.56215 33.1625 7.18321 36.2327 8.4019 39.1271C9.58544 41.916 11.2729 44.4237 13.429 46.5799C15.5852 48.736 18.0811 50.4234 20.8818 51.607C23.7645 52.814 26.8346 53.435 29.9985 53.435C33.1624 53.435 36.2326 52.814 39.127 51.5953C41.9159 50.4117 44.4236 48.7243 46.5798 46.5682C48.7359 44.412 50.4233 41.916 51.6069 39.1154C52.8139 36.2327 53.4349 33.1625 53.4349 29.9986C53.4349 26.8347 52.8138 23.7646 51.5952 20.8702C50.4116 18.0812 48.7242 15.5735 46.5681 13.4174C44.4119 11.2613 41.9159 9.57383 39.1153 8.39029C36.2326 7.18332 33.1624 6.56226 29.9985 6.56226Z" fill="white"/>
<path d="M24.9128 23.6123C24.7253 23.2139 24.3269 22.9444 23.8582 22.9444H17.671C17.0265 22.9444 16.4992 23.4717 16.4992 24.1162V41.8575C16.4992 42.5021 17.0265 43.0294 17.671 43.0294H23.8582C24.3386 43.0294 24.7605 42.7364 24.9363 42.3146C25.8269 42.4435 26.7526 42.6895 27.7135 42.9591C29.1548 43.3575 30.643 43.7676 32.1898 43.7676H38.9512C41.0371 43.7676 42.7362 42.6544 43.4862 40.8029C43.8494 39.9006 43.908 38.9632 43.6971 38.178C44.0838 37.8265 44.4119 37.3929 44.658 36.889C45.1619 35.8578 45.2673 34.6977 44.9744 33.7251C45.5017 33.2095 45.9001 32.5299 46.111 31.733C46.3103 30.9831 46.2985 30.2448 46.1345 29.6003C47.1891 28.9793 47.9039 27.8543 47.9039 26.577C47.9039 25.581 47.5172 24.6552 46.8141 23.9873C46.1345 23.3428 45.2322 22.9913 44.2713 22.9913H34.7327C34.0062 22.0772 33.7835 20.8468 34.1936 19.8508C35.0374 17.8118 34.9905 16.0892 34.0296 14.2612C33.3148 12.9019 31.393 11.5543 29.7759 11.7769C28.8033 11.9176 28.0885 12.6089 27.8893 13.6284C27.8307 13.9331 27.8072 14.2495 27.7955 14.6245C27.7486 15.5502 27.6783 16.8158 26.8815 18.3391C26.3425 19.3703 26.155 20.4367 26.0026 21.3859C25.7683 22.7217 25.6511 23.3662 24.9128 23.6123ZM18.8311 25.288H22.6747V40.6857H18.8311V25.288ZM28.2994 21.7608C28.44 20.9523 28.5806 20.1203 28.9439 19.4172C29.9751 17.4368 30.0688 15.7494 30.1157 14.7417C30.1274 14.4721 30.1392 14.2143 30.1743 14.0854C30.5844 14.0854 31.5805 14.6362 31.9555 15.3393C32.6 16.558 32.6234 17.5306 32.0375 18.9368C31.5102 20.2023 31.5453 21.6788 32.0727 22.9795C31.4985 23.0616 31.0649 23.542 31.0649 24.1396C31.0649 24.7841 31.5922 25.3115 32.2367 25.3115H44.2713C44.6228 25.3115 44.9627 25.4404 45.197 25.663C45.3611 25.8271 45.5603 26.1083 45.5603 26.5536C45.5603 27.1864 44.9861 27.7254 44.3064 27.7371L41.2949 27.8074C40.6504 27.8192 40.1348 28.3582 40.1465 29.0027C40.1582 29.6355 40.6855 30.1511 41.3183 30.1511C41.33 30.1511 41.33 30.1511 41.3417 30.1511L43.8494 30.0925C43.9315 30.3268 43.9783 30.7721 43.8026 31.276C43.6502 31.7096 43.2635 32.4361 42.2675 32.4361C41.623 32.4361 41.0957 32.9634 41.0957 33.6079C41.0957 34.2524 41.623 34.7798 42.2675 34.7798C42.4433 34.7798 42.619 34.768 42.7948 34.7446C42.8065 35.0727 42.7362 35.4594 42.5604 35.8344C42.3495 36.2797 41.9159 36.7953 41.1191 36.7953C40.4746 36.7953 39.9473 37.3226 39.9473 37.9671C39.9473 38.6116 40.4746 39.1389 41.1191 39.1389C41.2363 39.1389 41.3652 39.1389 41.4824 39.1272C41.4824 39.3499 41.4355 39.6311 41.3066 39.9358C41.1191 40.3811 40.5215 41.4123 38.963 41.4123H32.2016C30.9711 41.4123 29.6939 41.0607 28.3463 40.6857C27.2682 40.3928 26.1667 40.0881 25.0417 39.9475V25.9911C27.6666 25.5107 28.0299 23.3662 28.2994 21.7608Z" fill="white"/>
</g>
<defs>
<filter id="filter0_d" x="0" y="0" width="60.0001" height="60.9971" filterUnits="userSpaceOnUse" color-interpolation-filters="sRGB">
<feFlood flood-opacity="0" result="BackgroundImageFix"/>
<feColorMatrix in="SourceAlpha" type="matrix" values="0 0 0 0 0 0 0 0 0 0 0 0 0 0 0 0 0 0 127 0"/>
<feOffset dy="1"/>
<feColorMatrix type="matrix" values="0 0 0 0 0.370833 0 0 0 0 0.15575 0 0 0 0 0 0 0 0 0.25 0"/>
<feBlend mode="normal" in2="BackgroundImageFix" result="effect1_dropShadow"/>
<feBlend mode="normal" in="SourceGraphic" in2="effect1_dropShadow" result="shape"/>
</filter>
</defs>
</svg>
