<svg width="60" height="61" viewBox="0 0 60 61" fill="none" xmlns="http://www.w3.org/2000/svg">
<g clip-path="url(#clip0)" filter="url(#filter0_d)">
<path d="M58.9133 17.9474H58.0019V8.06232C58.0019 3.61052 54.3797 0 49.9396 0C49.9046 0 49.8695 0 49.8344 0C45.4411 0.0584226 41.8773 3.72736 41.8773 8.17916V17.9474H41.4917C40.9309 17.223 40.4167 16.4401 39.9844 15.6222C39.2249 13.1918 38.6407 10.6796 38.2668 8.14411H38.9912C39.5871 8.14411 40.0779 7.65336 40.0779 7.05745V1.08666C40.0779 0.49075 39.5871 0 38.9912 0H27.0146C26.4187 0 25.9279 0.49075 25.9279 1.08666V7.06913C25.9279 7.66504 26.4187 8.15579 27.0146 8.15579H27.739C27.3651 10.6796 26.7809 13.1918 26.0214 15.6339C25.5774 16.4401 25.075 17.223 24.5141 17.9591H17.0594C16.4635 17.9591 15.9727 18.4499 15.9727 19.0458V25.9396H5.07108C4.47517 25.9396 3.98442 26.4304 3.98442 27.0263V30.6835L0.186956 36.3739C0.151902 36.444 0.116849 36.5141 0.0817953 36.5842C0.0467418 36.7011 0.0233727 36.8296 0.0116882 36.9581V58.89C0.0116882 59.4859 0.502438 59.9766 1.09835 59.9766H58.925C59.5209 59.9766 60.0117 59.4859 60.0117 58.89V19.0341C60 18.4382 59.5092 17.9474 58.9133 17.9474ZM36.0584 8.15579C36.4674 10.9601 37.11 13.7527 37.9747 16.4518V16.4635C38.22 16.9776 38.5122 17.48 38.8276 17.9474H27.1548C27.4703 17.4684 27.7624 16.9776 28.0078 16.4635V16.4518C28.8607 13.7527 29.5151 10.9601 29.924 8.15579H36.0584ZM30.999 4.15969C31.5949 4.15969 32.0857 3.66894 32.0857 3.07303V2.16164H33.9085V3.07303C33.9085 3.66894 34.3992 4.15969 34.9951 4.15969C35.591 4.15969 36.0818 3.66894 36.0818 3.07303V2.16164H37.9046V5.97079H28.1129V2.17332H29.9124V3.08471C29.9124 3.68062 30.4031 4.15969 30.999 4.15969ZM44.0506 17.9474V8.06232C44.0506 4.81402 46.6913 2.16164 49.9396 2.16164C53.1879 2.16164 55.8403 4.80234 55.8403 8.06232V17.9474H44.0506ZM51.8442 20.1207V49.6241L48.035 55.3496V20.1207H51.8442ZM56.8919 57.8267H48.9815L52.9425 51.8909L56.8919 57.8267ZM54.0175 49.6125V20.1207H57.8267V55.3379L54.0175 49.6125ZM3.10808 35.8948L5.65531 32.0857H22.259L20.3544 35.8948H3.10808ZM6.15774 29.9124V28.0896H22.9367V29.9124H6.15774ZM28.0896 55.5015C28.7439 56.3895 29.5268 57.1723 30.4265 57.8267H28.0896V55.5015ZM22.7848 35.8948L24.0234 33.4177L25.2619 35.8948H22.7848ZM36.888 23.0185C36.888 23.6144 37.3788 24.1052 37.9747 24.1052H45.8617V25.9279H42.964C42.368 25.9279 41.8773 26.4187 41.8773 27.0146C41.8773 27.6105 42.368 28.1013 42.964 28.1013H45.8617V42.4031C44.2259 40.1831 41.8422 38.6641 39.1314 38.1149C39.2366 37.3437 39.4703 36.2571 40.0428 35.2872C40.7556 34.0721 41.7838 33.3593 43.1275 33.149C43.665 33.0672 44.0506 32.6115 44.0506 32.074C44.0506 31.4664 43.5599 30.9757 42.9523 30.9757C42.8938 30.9757 42.8354 30.9757 42.7887 30.9873C40.5453 31.3262 38.6407 32.8335 37.7877 34.925C36.4674 33.0438 34.3174 31.9221 32.0039 31.9221H30.0058C29.4099 31.9221 28.9192 32.4129 28.9192 33.0088C28.9192 35.4275 30.1928 37.7059 32.2376 38.9912C30.6017 39.7741 29.1762 40.9542 28.1013 42.4148V37.0049C28.0896 36.888 28.0662 36.7595 28.0311 36.6426C28.0311 36.631 28.0195 36.6193 28.0195 36.5959C28.0078 36.5609 27.9961 36.5375 27.9961 36.5258L25.1217 30.777V27.0497C25.1217 26.4537 24.631 25.963 24.035 25.963H18.1344V20.1558H45.8734V21.9786H37.9747C37.3788 21.9318 36.888 22.4226 36.888 23.0185ZM36.7712 37.8929H35.9883C33.7098 37.8929 31.7118 36.2921 31.2093 34.0837H31.9922C34.2707 34.0837 36.2687 35.6728 36.7712 37.8929ZM36.9815 40.0545C41.8773 40.0545 45.8617 44.0389 45.8617 48.9464C45.8617 53.8539 41.8773 57.8267 36.9815 57.8267C32.0857 57.8267 28.1013 53.8423 28.1013 48.9464C28.1013 44.0506 32.0857 40.0662 36.9815 40.0545ZM25.9279 38.0682V57.8384H22.1188V38.0682H25.9279ZM45.8617 55.5015V57.8267H43.5365C44.4245 57.1723 45.2074 56.3895 45.8617 55.5015ZM18.5316 51.2483C18.1344 51.7274 17.9942 51.8559 17.702 51.8559C17.4099 51.8559 17.2697 51.739 16.8724 51.2483C16.3116 50.407 15.3768 49.8929 14.372 49.8578C13.3671 49.8929 12.4323 50.407 11.8715 51.2483C11.4742 51.7274 11.334 51.8559 11.0419 51.8559C10.7498 51.8559 10.6212 51.739 10.2123 51.2483C9.65141 50.407 8.72833 49.8929 7.72347 49.8578C6.7186 49.8929 5.78384 50.407 5.22298 51.2483C4.82571 51.7274 4.68549 51.8559 4.39338 51.8559C4.12464 51.8559 3.99611 51.7624 3.56378 51.2483C3.20156 50.7575 2.7225 50.3486 2.16164 50.0798V38.0682H19.9338V50.0915C19.3846 50.3486 18.8939 50.7575 18.5316 51.2483ZM6.90555 52.6271C7.30282 52.148 7.44304 52.0195 7.73515 52.0195C8.02726 52.0195 8.15579 52.1363 8.56475 52.6271C9.11392 53.4684 10.0487 53.9825 11.0536 54.0175C12.0584 53.9825 12.9932 53.4684 13.554 52.6271C13.9513 52.148 14.0915 52.0195 14.3836 52.0195C14.6758 52.0195 14.816 52.1363 15.2132 52.6271C15.7741 53.4684 16.7089 53.9825 17.702 54.0175C18.5667 54.0058 19.3846 53.6086 19.9455 52.9542V57.8267H2.17332V52.9542C2.7225 53.6086 3.54041 54.0058 4.40507 54.0175C5.40993 53.9825 6.34469 53.4684 6.90555 52.6271Z" fill="white"/>
<path d="M47.8948 11.8248C48.0117 11.8248 48.1285 11.8015 48.2337 11.7664L52.3233 10.3993C52.6037 10.3058 52.8257 10.1189 52.9542 9.85015C53.0828 9.59309 53.1061 9.30098 53.0127 9.02055C52.8608 8.57654 52.4518 8.28442 51.9844 8.28442C51.8676 8.28442 51.7507 8.30779 51.6456 8.34285L47.556 9.70993C47.2756 9.80341 47.0536 9.99036 46.925 10.2591C46.7965 10.5162 46.7731 10.8083 46.8666 11.0887C47.0185 11.521 47.4275 11.8248 47.8948 11.8248Z" fill="white"/>
<path d="M51.9844 13.2734C51.8676 13.2734 51.7507 13.2968 51.6456 13.3319L47.556 14.6989C46.9835 14.8859 46.6797 15.5052 46.8666 16.066C47.0185 16.51 47.4275 16.8022 47.8948 16.8022C48.0117 16.8022 48.1285 16.7788 48.2337 16.7437L52.3233 15.3766C52.6037 15.2832 52.8257 15.0962 52.9542 14.8275C53.0828 14.5587 53.1061 14.2783 53.0127 13.9979C52.8724 13.5772 52.4518 13.2734 51.9844 13.2734Z" fill="white"/>
<path d="M11.0536 38.8276C7.09252 38.8276 3.98444 41.0594 3.98444 43.8987C3.98444 46.7381 7.09252 48.9698 11.0536 48.9698C15.0146 48.9698 18.1227 46.7381 18.1227 43.8987C18.1227 41.0594 15.0146 38.8276 11.0536 38.8276ZM15.9494 43.8987C15.9494 45.4761 13.706 46.7965 11.0536 46.7965C8.40119 46.7965 6.15776 45.4644 6.15776 43.8987C6.15776 42.333 8.40119 41.001 11.0536 41.001C13.706 41.001 15.9494 42.3213 15.9494 43.8987Z" fill="white"/>
<path d="M36.8647 55.9572C36.8997 55.9572 36.9348 55.9572 36.9815 55.9572C37.5774 55.9572 38.0682 55.4664 38.0682 54.8705C38.0682 54.3097 37.6475 53.8423 37.0867 53.7955C33.593 53.445 32.5414 51.0731 32.2142 49.6826C32.0974 49.1918 31.6651 48.8413 31.1626 48.8413C31.1393 48.8413 31.1159 48.8413 31.1042 48.8413H31.0925C30.7653 48.8647 30.4732 49.0166 30.2863 49.2736C30.0993 49.5307 30.0292 49.8462 30.0993 50.1617C30.4148 51.5171 31.1159 52.7907 32.0506 53.7488C33.2658 55.0224 34.89 55.7585 36.8647 55.9572Z" fill="white"/>
</g>
<defs>
<filter id="filter0_d" x="0" y="0" width="60" height="61" filterUnits="userSpaceOnUse" color-interpolation-filters="sRGB">
<feFlood flood-opacity="0" result="BackgroundImageFix"/>
<feColorMatrix in="SourceAlpha" type="matrix" values="0 0 0 0 0 0 0 0 0 0 0 0 0 0 0 0 0 0 127 0"/>
<feOffset dy="1"/>
<feColorMatrix type="matrix" values="0 0 0 0 0.370833 0 0 0 0 0.15575 0 0 0 0 0 0 0 0 0.25 0"/>
<feBlend mode="normal" in2="BackgroundImageFix" result="effect1_dropShadow"/>
<feBlend mode="normal" in="SourceGraphic" in2="effect1_dropShadow" result="shape"/>
</filter>
<clipPath id="clip0">
<rect width="60" height="60" fill="white"/>
</clipPath>
</defs>
</svg>
