<svg width="459" height="217" viewBox="0 0 459 217" fill="none" xmlns="http://www.w3.org/2000/svg">
<rect x="1.05328" y="53.1518" width="365.75" height="99.0573" rx="10.8854" transform="rotate(-7 1.05328 53.1518)" fill="#78BE20"/>
<path d="M57.9692 86.9613C58.3513 87.0723 58.8167 87.6468 59.3653 88.685C59.9076 89.6712 60.4298 90.9232 60.932 92.4408C60.9137 94.8646 60.7895 96.8539 60.5593 98.4088C60.3809 99.9574 60.0633 101.444 59.6066 102.869C59.1562 104.345 58.7162 105.479 58.2868 106.268C57.851 107.006 57.2464 107.87 56.473 108.86L53.4732 111.439C51.9538 112.784 50.7755 113.692 49.9384 114.163C49.1596 114.68 48.1479 115.015 46.9032 115.168C46.2672 115.562 45.4534 115.793 44.4617 115.862C43.4763 115.983 42.854 116.06 42.5947 116.091C41.0516 116.386 39.7528 116.098 38.6984 115.227C37.6439 114.357 37.0275 113.195 36.8492 111.743C36.7919 111.277 36.7764 110.936 36.8028 110.722C37.4397 109.907 38.1471 109.452 38.925 109.356C39.4436 109.293 39.9491 109.336 40.4413 109.486C40.979 109.578 41.4812 109.595 41.948 109.538C42.4147 109.481 42.82 109.352 43.164 109.152C43.456 108.958 43.8095 108.836 44.2244 108.785C44.6911 108.727 44.9732 108.666 45.0705 108.602C46.3616 107.969 47.7568 107.114 49.2563 106.035C50.7493 104.904 51.8502 103.795 52.559 102.708C52.5981 102.598 52.6309 102.436 52.6573 102.222C52.7292 101.95 52.8011 101.678 52.8729 101.406C51.6992 101.708 50.5319 102.062 49.371 102.467C48.3465 102.698 47.6527 102.836 47.2897 102.881C46.5118 102.976 45.8445 102.9 45.2876 102.653C44.7827 102.399 44.3269 101.902 43.9202 101.163C43.7655 100.76 43.6787 100.482 43.6595 100.326C43.5895 99.7555 43.7073 99.2146 44.0131 98.7032C44.3188 98.1919 44.488 97.8553 44.5208 97.6933L45.2223 96.9755L46.3796 96.7544C46.95 96.6844 47.4846 96.7504 47.9831 96.9524C47.7566 96.8223 48.1328 96.6708 49.1118 96.4979C50.1363 96.2669 51.6111 96.0594 53.5363 95.8757L53.6141 95.8661C53.9771 95.8216 54.1173 95.4622 54.0345 94.788C53.9581 94.1657 53.7529 93.138 53.419 91.705C53.0833 91.1145 52.7472 90.7347 52.4105 90.5654C52.0739 90.3962 51.8765 90.2888 51.8182 90.2433C51.0403 90.3389 50.1974 90.5477 49.2893 90.8697C48.4332 91.1854 47.9432 91.4825 47.8195 91.7609C46.5075 93.0801 45.3069 93.8066 44.2179 93.9403C43.0251 94.0867 42.2322 93.6313 41.8391 92.5741L41.5894 91.1834C41.3729 89.4202 41.3598 88.0268 41.5499 87.0032C41.5445 86.5301 41.873 85.9897 42.5353 85.3819C43.1977 84.7742 44.2454 84.3033 45.6784 83.9695C46.8393 83.5637 47.8865 83.3035 48.82 83.1889C50.2203 83.017 51.6815 83.1271 53.2036 83.5193C54.0133 83.6831 54.9359 84.1225 55.9713 84.8377C57.0067 85.5528 57.6726 86.2607 57.9692 86.9613ZM89.1927 79.969C89.6585 80.3329 89.936 80.8779 90.0252 81.6039C90.108 82.2781 90.0352 82.9714 89.8068 83.6838C89.572 84.3443 89.2695 84.8816 88.8992 85.2956C87.7236 86.4401 86.4376 87.7561 85.0409 89.2437C82.0011 92.3543 79.7247 94.6079 78.2116 96.0045C78.5801 96.433 79.3716 97.5203 80.5862 99.2663L81.6425 100.795C81.8881 101.081 82.1984 101.464 82.5732 101.944C82.948 102.424 83.3297 102.746 83.7182 102.909C84.1003 103.02 84.7063 103.024 85.5361 102.923C86.5205 103.223 87.171 103.59 87.4876 104.025C87.7979 104.408 87.9816 104.833 88.0389 105.3C88.0899 105.715 88.1572 106.049 88.2409 106.302L87.927 107.604C87.927 107.604 87.7059 107.947 87.2637 108.633C86.8734 109.312 86.0299 109.732 84.7334 109.891C84.2667 109.948 83.6284 109.895 82.8187 109.731C81.3611 109.436 79.7462 108.503 77.9739 106.931C77.5536 106.508 76.278 104.48 74.1473 100.847C73.0692 98.9259 72.2071 97.4787 71.5612 96.5052C71.1363 98.1893 70.9843 99.524 71.1053 100.509C70.734 101.345 70.4465 102.433 70.2427 103.774C70.0388 105.115 69.9042 105.947 69.8387 106.271C69.6867 107.606 69.0229 108.846 67.8474 109.99C66.7647 110.176 65.9513 110.197 65.4072 110.053C64.9087 109.851 64.2422 109.354 63.4079 108.561C62.9494 107.828 62.6692 107.046 62.5673 106.217C62.4972 105.646 62.515 104.933 62.6206 104.078C62.6797 103.702 63.2752 101.05 64.4072 96.1202C65.3235 92.0069 65.7948 89.8433 65.8212 89.6295C65.9131 89.0918 66.0733 88.4667 66.3016 87.7543C66.5819 87.0356 66.7839 86.537 66.9076 86.2586C67.6437 84.5363 68.0745 83.1147 68.2001 81.9938C68.3121 81.1904 68.6246 80.5203 69.1378 79.9835C69.6964 79.3885 70.3128 79.0496 70.987 78.9668C71.8686 78.8586 72.6684 79.1552 73.3862 79.8567L73.3767 79.7789C73.5386 79.8117 73.736 79.919 73.969 80.101C74.2474 80.2247 74.448 80.358 74.5708 80.5009C75.3405 81.196 75.7858 82.0363 75.9068 83.0216C75.9896 83.6958 75.8845 84.3404 75.5915 84.9554L74.5652 87.5293C73.8491 88.986 73.2754 90.5304 72.8441 92.1626C73.8104 91.886 74.5173 91.6413 74.965 91.4284C75.4126 91.2155 75.8348 90.7952 76.2315 90.1674C76.7319 89.5269 77.3461 88.7408 78.0739 87.8092C78.8537 86.8712 79.6075 85.9363 80.3354 85.0047C81.258 83.9438 82.106 82.9185 82.8794 81.9286C82.9185 81.8185 83.0681 81.5369 83.3284 81.0838C83.6341 80.5725 83.9494 80.139 84.2742 79.7832C84.6508 79.4211 85.063 79.1336 85.5107 78.9208C86.5606 78.8971 87.3576 78.9572 87.9017 79.101C88.4976 79.2384 88.928 79.5277 89.1927 79.969ZM101.619 107.976C101.009 108.156 100.523 108.268 100.16 108.313C98.0333 108.574 96.0577 108.132 94.2326 106.987C92.453 105.785 91.4326 104.12 91.1715 101.994L90.9409 100.759C90.6416 98.3212 90.8391 95.4279 91.5334 92.0788C92.2277 88.7298 93.2545 85.9453 94.6138 83.7253C95.7257 82.0621 96.691 80.7065 97.5099 79.6584C98.3288 78.6103 99.1081 77.8829 99.8478 77.4762C100.49 77.1341 101.317 76.7957 102.329 76.4609C103.341 76.1261 104.106 75.9269 104.624 75.8632C105.693 75.9952 106.697 76.2404 107.636 76.5989C108.627 76.951 109.158 77.4123 109.228 77.9828L109.664 78.324C110.027 78.2794 110.512 78.7989 111.119 79.8825C111.778 80.9598 112.165 81.9652 112.279 82.8986C112.336 83.3654 112.306 83.7639 112.189 84.0942C112.103 85.105 111.806 86.1153 111.298 87.1252C110.842 88.1288 110.407 88.656 109.992 88.707C109.421 88.777 109.155 88.9676 109.193 89.2788C109.225 89.5381 108.93 89.7059 108.308 89.7823C107.789 89.846 107.232 89.8092 106.636 89.6718C106.033 89.4825 105.658 89.2127 105.51 88.8624C105.478 88.6031 105.558 87.5405 105.75 85.6744C105.81 84.8774 105.808 84.2196 105.745 83.701C105.63 82.7675 105.262 82.3389 104.639 82.4154C104.484 82.4345 104.107 82.5859 103.511 82.8698C102.251 83.7614 101.267 84.7508 100.559 85.8381C99.8953 86.8671 99.3544 88.2495 98.9359 89.9855C98.5173 91.7214 98.0873 94.2221 97.646 97.4875C97.5668 98.1289 97.5591 98.7089 97.6228 99.2275C97.6992 99.8499 97.8406 100.359 98.0472 100.755C98.2473 101.099 98.4284 101.287 98.5903 101.32C98.8624 101.392 99.3355 101.386 100.01 101.303C101.306 101.144 102.315 100.783 103.035 100.221C103.905 99.588 104.743 98.9061 105.548 98.1755C106.347 97.393 106.84 96.9113 107.029 96.7302C107.12 96.6138 107.292 96.3031 107.546 95.7981C107.793 95.2413 108.089 94.8628 108.433 94.6627C108.687 94.1577 109.041 93.8247 109.495 93.6637C109.949 93.5027 110.409 93.3935 110.876 93.3362C111.343 93.2789 111.654 93.2407 111.809 93.2216C112.509 93.3462 113.215 93.7334 113.926 94.383C114.638 95.0327 114.799 95.4867 114.409 95.7451C114.254 95.7642 114.156 95.8288 114.117 95.9388C114.078 96.0489 114.062 96.1299 114.068 96.1818C114.204 96.4283 113.875 97.1794 113.081 98.4349C112.282 99.6386 111.375 100.829 110.361 102.006C109.341 103.132 108.624 103.72 108.209 103.771C108.002 103.796 107.823 103.845 107.674 103.916C107.525 103.987 107.463 104.126 107.488 104.333C107.514 104.541 106.771 105.132 105.258 106.107C103.792 107.024 102.578 107.647 101.619 107.976ZM142.64 73.4064C143.106 73.7703 143.384 74.3153 143.473 75.0414C143.556 75.7156 143.483 76.4089 143.255 77.1213C143.02 77.7818 142.717 78.319 142.347 78.733C141.171 79.8775 139.885 81.1936 138.489 82.6811C135.449 85.7918 133.172 88.0454 131.659 89.4419C132.028 89.8705 132.819 90.9577 134.034 92.7037L135.09 94.2323C135.336 94.518 135.646 94.901 136.021 95.3814C136.396 95.8618 136.777 96.1835 137.166 96.3463C137.548 96.4573 138.154 96.4619 138.984 96.36C139.968 96.6603 140.619 97.0279 140.935 97.4628C141.246 97.8458 141.429 98.2707 141.487 98.7375C141.538 99.1523 141.605 99.4862 141.689 99.7392L141.375 101.041C141.375 101.041 141.154 101.384 140.711 102.07C140.321 102.75 139.478 103.169 138.181 103.328C137.714 103.386 137.076 103.332 136.266 103.169C134.809 102.874 133.194 101.94 131.422 100.368C131.001 99.9459 129.726 97.9179 127.595 94.284C126.517 92.3633 125.655 90.9162 125.009 89.9427C124.584 91.6267 124.432 92.9615 124.553 93.9468C124.182 94.782 123.894 95.8702 123.69 97.2113C123.487 98.5524 123.352 99.3849 123.286 99.7088C123.134 101.043 122.471 102.283 121.295 103.428C120.212 103.613 119.399 103.634 118.855 103.49C118.356 103.288 117.69 102.791 116.856 101.999C116.397 101.265 116.117 100.484 116.015 99.654C115.945 99.0835 115.963 98.3707 116.068 97.5154C116.127 97.1397 116.723 94.4871 117.855 89.5576C118.771 85.4443 119.243 83.2807 119.269 83.0669C119.361 82.5292 119.521 81.9042 119.749 81.1918C120.03 80.473 120.232 79.9744 120.355 79.696C121.091 77.9737 121.522 76.5521 121.648 75.4312C121.76 74.6278 122.072 73.9578 122.586 73.421C123.144 72.826 123.761 72.4871 124.435 72.4043C125.316 72.296 126.116 72.5926 126.834 73.2941L126.824 73.2164C126.986 73.2491 127.184 73.3565 127.417 73.5384C127.695 73.6622 127.896 73.7955 128.019 73.9383C128.788 74.6335 129.234 75.4737 129.355 76.459C129.437 77.1332 129.332 77.7778 129.039 78.3929L128.013 80.9668C127.297 82.4234 126.723 83.9678 126.292 85.6001C127.258 85.3235 127.965 85.0788 128.413 84.8659C128.86 84.653 129.283 84.2326 129.679 83.6049C130.18 82.9644 130.794 82.1783 131.522 81.2466C132.301 80.3086 133.055 79.3738 133.783 78.4421C134.706 77.3813 135.554 76.3559 136.327 75.366C136.366 75.256 136.516 74.9744 136.776 74.5213C137.082 74.01 137.397 73.5764 137.722 73.2207C138.099 72.8586 138.511 72.5711 138.958 72.3582C140.008 72.3346 140.805 72.3946 141.349 72.5384C141.945 72.6758 142.376 72.9651 142.64 73.4064ZM170.199 71.6019C170.872 72.3616 171.32 73.2278 171.545 74.2004C171.821 75.1666 171.982 76.0419 172.025 76.8262C172.114 77.5522 172.198 78.0158 172.275 78.2169C172.011 80.355 171.597 83.1959 171.031 86.7397C170.46 90.2316 170.207 91.605 170.274 90.8598C170.228 91.3393 170.1 92.013 169.89 92.881C169.628 94.1766 169.467 95.2229 169.407 96.0199C169.366 96.9725 169.112 97.6881 168.644 98.1667C168.222 98.587 167.57 99.0619 166.687 99.5914C166.389 99.7333 166.162 99.8138 166.006 99.8329C165.073 99.9476 164.059 99.6246 162.966 98.8639C162.417 97.8258 162.114 97.0733 162.057 96.6066C161.999 96.1399 162.075 95.4725 162.285 94.6045C162.626 92.6675 163.02 90.3029 163.467 87.5106C163.907 84.6665 164.295 82.25 164.63 80.2611L164.994 78.0843C165.08 77.0735 165.056 76.2342 164.922 75.5664C164.656 75.5463 164.186 75.5777 163.512 75.6605C162.786 75.7496 162.121 75.9102 161.518 76.1422C161.32 77.9564 160.92 79.8479 160.32 81.8168C159.765 83.7274 158.838 86.4733 157.541 90.0543C156.83 91.9841 155.977 93.826 154.982 95.5802L154.201 96.9394L151.735 100.006L149.553 102.169C149.273 102.467 148.955 102.664 148.599 102.76C148.248 102.908 147.863 102.982 147.441 102.981C147.027 103.032 146.689 103.073 146.43 103.105C145.73 102.981 145.028 102.619 144.323 102.022C143.67 101.417 143.23 101.05 143.003 100.92L142.5 100.034C142.442 99.5677 142.453 99.2242 142.531 99.004C142.655 98.7256 142.944 98.2953 143.399 97.713C143.686 97.0461 144.114 96.6776 144.685 96.6076C144.996 96.5694 145.232 96.5666 145.394 96.5994C145.771 96.2373 146.339 95.7201 147.099 95.0477C147.852 94.3235 148.46 93.6962 148.921 93.1658C149.428 92.5771 149.831 92.0012 150.13 91.438C151.067 89.6384 152.191 87.2106 153.5 84.1545C154.034 82.9307 154.676 81.0883 155.427 78.6273C154.941 78.529 154.617 78.4635 154.455 78.4307C154.345 78.3916 154.012 78.2483 153.455 78.0008L152.024 74.7022C151.864 73.4057 152.388 72.5254 153.594 72.0614C154.502 71.7394 155.848 71.3373 157.631 70.8551C158.909 70.5403 159.976 70.2251 160.832 69.9094C161.48 69.6192 162.297 69.4136 163.283 69.2926C164.735 69.1143 166.089 69.2112 167.346 69.5834C168.44 69.9227 169.391 70.5956 170.199 71.6019ZM208.857 67.3291C209.167 67.7122 209.357 68.1889 209.427 68.7594C209.484 69.2261 209.451 69.5987 209.327 69.8771L207.944 71.4684C208.066 71.6112 208.17 71.8091 208.253 72.0621C208.389 72.3086 208.579 72.5748 208.825 72.8605L209.008 73.7066C209.059 74.1215 209.039 74.3872 208.948 74.5036C208.909 74.6137 208.86 74.646 208.802 74.6005C209.183 75.1328 209.431 75.8656 209.546 76.7991C209.59 77.1622 209.615 77.5802 209.621 78.0533C209.62 78.4746 209.655 78.7598 209.726 78.909C209.893 79.4149 209.823 80.3448 209.515 81.6986C209.253 82.9942 209.103 83.697 209.064 83.8071C209.01 84.656 208.684 85.6436 208.085 86.7699C207.714 87.6052 207.515 88.1297 207.489 88.3435C207.397 88.8812 207.205 89.2469 206.913 89.4407C206.614 89.5827 206.442 89.6827 206.397 89.741C205.558 91.0547 204.47 92.2675 203.132 93.3793C202.132 94.2391 201.285 94.8432 200.591 95.1916C199.949 95.5337 199.057 95.7748 197.916 95.9149C196.827 96.0486 195.89 96.1373 195.106 96.181C193.623 95.6787 192.561 95.1774 191.921 94.6769C191.332 94.1701 190.738 93.4009 190.137 92.3691C189.879 91.9797 189.544 91.1786 189.131 89.9658C188.765 88.6947 188.604 88.0301 188.65 87.9719L188.093 84.7237C183.902 86.607 181.745 87.6878 181.621 87.9662C181.257 88.4321 181.084 88.9534 181.103 89.5302C181.102 89.9515 180.947 91.0496 180.639 92.8247C180.442 93.7964 180.324 94.5479 180.284 95.0793C180.328 95.4423 180.22 96.061 179.959 96.9353C179.743 97.7514 179.467 98.2855 179.129 98.5375C178.512 99.087 177.893 99.4 177.27 99.4764C177.011 99.5083 176.664 99.4719 176.23 99.3672C175.253 98.6976 174.558 98.1776 174.144 97.8073C173.723 97.3851 173.368 96.8497 173.078 96.2009L173.005 93.683L172.356 88.3932C172.248 87.5116 172.356 86.6823 172.682 85.9053C173.002 85.0764 173.496 84.3841 174.164 83.8282C174.651 83.5052 174.979 83.1754 175.148 82.8387C175.369 82.4957 175.516 81.9776 175.589 81.2843L176.64 71.8375L176.621 71.682C176.596 71.4745 176.609 71.157 176.662 70.7294C176.715 70.3018 176.729 69.9842 176.703 69.7768C176.601 68.947 176.749 68.2182 177.145 67.5905C177.542 66.9627 178.117 66.4973 178.869 66.1944L183.706 68.2853C183.963 69.0959 184.117 69.7087 184.168 70.1236C184.245 70.7459 184.159 71.5461 183.91 72.5242C183.734 73.2302 183.546 74.4903 183.348 76.3045L182.923 79.2783L187.349 78.0242L187.66 77.986C188.075 77.935 188.5 77.9619 188.934 78.0665L189.462 76.5803C189.938 75.3111 190.414 74.0419 190.89 72.7727C191.411 71.4453 191.893 70.4386 192.335 69.7526C193.103 68.2896 194.035 67.0959 195.133 66.1715C195.542 65.6475 196.117 65.1821 196.856 64.7754C197.648 64.3624 198.485 64.1017 199.366 63.9935L200.726 64.7741C200.894 64.8588 201.583 65.3269 202.793 66.1785C203.202 66.0757 203.743 65.9829 204.417 65.9001C205.454 65.7728 206.303 65.8265 206.964 66.0612C207.618 66.2441 208.249 66.6668 208.857 67.3291ZM202.028 82.4599C202.139 82.0778 202.312 81.5565 202.547 80.8959C202.827 80.1772 202.958 79.5294 202.94 78.9526C202.967 78.3175 202.895 77.2998 202.723 75.8996C202.57 75.0762 202.27 74.3497 201.824 73.7201C201.43 73.0841 200.81 72.318 199.962 71.4218C199.059 72.6382 198.386 73.5895 197.944 74.2755C197.554 74.9551 197.143 75.9004 196.713 77.1114L196.009 79.093C195.487 80.4204 195.154 81.5668 195.01 82.5321C194.859 83.4456 194.905 84.4664 195.149 85.5946C195.308 86.8911 195.555 88.0452 195.89 89.057C196.305 89.006 196.71 88.8773 197.106 88.6708C198.04 88.1349 198.871 87.4012 199.599 86.4695C200.372 85.4796 201.182 84.1431 202.028 82.4599ZM230.385 77.7937C229.76 79.1339 228.649 80.5864 227.051 82.1513C225.499 83.6579 223.723 85.271 221.723 86.9906C222.492 88.1069 223.211 89.4662 223.882 91.0685C224.598 92.6125 225.058 94.0036 225.263 95.2419C226.683 94.8043 227.575 94.5632 227.938 94.5186C228.164 94.6487 228.614 94.883 229.288 95.2215C229.967 95.6118 230.491 96.0213 230.86 96.4498C231.286 96.9239 231.535 97.4461 231.605 98.0166C231.811 98.4123 231.745 98.9469 231.407 99.6201C231.12 100.287 230.669 100.685 230.053 100.813C229.696 100.909 229.103 101.008 228.273 101.11C226.614 101.314 225.466 101.613 224.83 102.007C224.537 102.622 224.25 103.5 223.969 104.64C223.472 106.596 222.872 108.354 222.169 109.914C221.472 111.526 220.331 113.167 218.746 114.835C218.005 115.663 217.271 116.333 216.544 116.843C215.824 117.405 215.23 117.715 214.763 117.772C212.655 118.61 210.953 119.109 209.656 119.268C208.516 119.408 207.45 119.302 206.459 118.95C205.423 118.656 204.27 118.06 203.002 117.163L199.967 113.667C199.774 112.953 199.659 112.441 199.62 112.13C199.474 110.937 199.778 109.768 200.532 108.623C202.574 105.529 205.603 102.973 209.619 100.953C210.398 100.436 211.046 100.146 211.565 100.082L212.363 99.5105C212.5 99.3359 212.672 99.2358 212.879 99.2103C213.145 99.2303 213.3 99.2112 213.346 99.153C213.496 98.6608 213.846 98.5125 214.397 98.7081L216.109 97.8661C216.868 97.615 217.744 97.2443 218.737 96.7539C218.725 96.2289 218.665 95.5256 218.557 94.644C218.321 92.7251 217.828 91.496 217.077 90.9564C216.553 90.547 216.123 90.047 215.788 89.4565C215.497 88.8078 215.32 88.4348 215.255 88.3374C214.894 87.5395 214.617 86.9945 214.423 86.7024C214.334 85.9764 214.403 85.4678 214.63 85.1766C214.903 84.8273 215.264 84.5461 215.711 84.3333C216.211 84.114 216.584 83.9366 216.83 83.801C218.589 82.6902 220.466 81.0384 222.46 78.8458C224.5 76.5949 226.057 74.4823 227.13 72.508C227.384 72.003 227.483 71.5172 227.425 71.0504C227.349 70.4281 227.049 69.9122 226.525 69.5028C225.994 69.0415 225.337 68.8327 224.552 68.8763C223.049 69.061 220.965 70.5276 218.302 73.2761C217.556 73.631 216.975 73.8338 216.56 73.8848C215.99 73.9548 215.469 73.7819 214.996 73.3661C214.524 72.9503 214.072 72.2689 213.64 71.3217C213.616 70.2718 213.705 69.4975 213.907 68.9989C214.103 68.4485 214.402 67.8853 214.805 67.3094C215.26 66.7271 215.592 66.2126 215.8 65.7659C216.132 65.462 216.554 65.0417 217.067 64.5049C217.632 63.9617 218.158 63.5286 218.645 63.2057C219.183 62.8763 219.79 62.6703 220.464 62.5875C220.671 62.562 220.95 62.4751 221.3 62.3268C221.696 62.1203 222.076 61.9948 222.439 61.9502C225.252 61.7101 227.59 62.5285 229.452 64.4055C231.133 66.0942 232.082 67.8202 232.299 69.5834C232.541 71.5541 231.903 74.2909 230.385 77.7937ZM213.26 111.956C214.052 111.121 214.8 110.135 215.502 108.996C216.204 107.857 216.556 106.866 216.558 106.023L216.639 104.75L213.789 105.337C212.2 106.111 210.73 107.002 209.38 108.01C208.029 109.018 207.111 109.894 206.623 110.639L204.944 113.687C206.064 114.234 207.324 114.422 208.724 114.25C210.488 114.033 211.999 113.269 213.26 111.956ZM254.116 88.7775C253.592 88.3681 253.13 87.8194 252.73 87.1316C252.375 86.3855 251.895 85.26 251.289 83.7552C251.147 83.4567 251.041 83.0223 250.971 82.4518C250.894 81.8295 250.84 81.3887 250.808 81.1294C250.658 81.6216 250.463 82.172 250.221 82.7807C249.974 83.3375 249.707 83.7387 249.422 83.9844C248.375 85.3236 247.291 86.3517 246.168 87.0687C244.636 88.3096 243.273 89.0033 242.081 89.1498C240.628 89.3281 239.301 88.8067 238.098 87.5857C236.273 86.4411 235.246 84.9353 235.017 83.0683C234.985 82.809 234.976 82.31 234.991 81.5712C234.859 79.6396 234.892 77.7667 235.091 75.9525C235.341 74.132 235.92 71.771 236.827 68.8695L238.587 63.9155L239.536 61.3512C239.783 61.2156 240.191 61.1128 240.761 61.0428C241.591 60.9409 242.388 61.001 243.153 61.223C243.917 61.445 244.357 61.8121 244.472 62.3244C244.653 62.5127 244.779 62.8921 244.849 63.4626C245.053 65.1221 244.623 67.4122 243.56 70.3327L243.12 71.8871C242.46 74.2318 241.999 76.0519 241.737 77.3475C241.475 78.6431 241.395 79.7057 241.497 80.5355C241.599 81.3653 241.977 81.8716 242.631 82.0545C242.909 82.1782 243.23 82.2178 243.593 82.1732C244.63 82.0459 245.776 81.0892 247.031 79.3033C248.337 77.5109 249.536 74.6263 250.627 70.6495C251.137 68.7971 251.355 66.9278 251.281 65.0417C251.107 64.484 251.186 63.8426 251.518 63.1175C251.85 62.3923 252.328 61.7809 252.951 61.2833C253.121 60.9466 253.377 60.6782 253.721 60.4781C254.059 60.2261 254.292 60.1974 254.421 60.3921L255.656 60.1615C255.806 60.0905 256.068 60.2953 256.442 60.7757C256.869 61.2497 257.167 61.529 257.335 61.6136C257.905 61.9648 258.266 62.7628 258.419 64.0074C258.629 65.7188 258.296 68.1549 257.421 71.3156C256.69 73.511 256.213 75.2015 255.99 76.387C255.813 77.5143 255.762 78.5997 255.837 79.6433C255.971 80.7323 256.154 81.5785 256.386 82.1817C256.664 82.7267 257.203 83.2658 258.006 83.799C258.906 84.2676 259.408 85.5745 259.514 87.7199C259.455 88.0957 259.205 88.4159 258.763 88.6807C258.322 88.9454 257.764 89.1192 257.09 89.202C255.949 89.3421 254.958 89.2006 254.116 88.7775ZM290.381 32.9194C291.583 34.5617 292.251 35.9274 292.385 37.0164C292.467 37.6906 292.427 38.4326 292.263 39.2423C292.099 40.0521 291.844 40.9783 291.499 42.021C291.198 43.0054 290.993 43.6887 290.882 44.0708C290.132 46.1106 288.967 48.2014 287.388 50.3431C285.808 52.4848 283.902 54.5351 281.668 56.4939C279.726 58.6802 277.781 60.4193 275.834 61.7112L275.104 62.1957C276.496 62.3931 277.999 63.051 279.61 64.1692C280.134 64.5786 280.437 65.1204 280.52 65.7946C280.539 65.9502 280.522 66.2418 280.47 66.6694C280.494 67.2981 280.516 67.9009 280.534 68.4777C280.546 69.0027 280.58 69.4985 280.637 69.9653C280.448 70.5676 280.274 71.5102 280.116 72.793C279.951 74.024 279.745 75.1286 279.496 76.1066C279.248 77.0847 278.854 78.1596 278.313 79.3315C277.538 81.1639 276.877 82.4294 276.331 83.1282C275.831 83.7687 274.746 84.7968 273.078 86.2124L271.072 87.8801C270.916 87.8992 270.371 87.9661 269.438 88.0807C268.511 88.2472 267.523 88.1316 266.474 87.734C265.483 87.3819 264.613 86.7254 263.863 85.7646C263.353 85.0376 262.884 84.2265 262.459 83.3312C262.078 82.3777 261.841 81.512 261.745 80.7341C261.675 80.1636 261.699 79.7133 261.816 79.383C262.051 75.7218 262.274 73.036 262.485 71.3255C262.69 69.5632 262.828 68.546 262.9 68.274L263.399 66.5544C263.55 66.0622 263.677 65.5991 263.782 65.1651C263.88 64.6792 263.897 64.177 263.833 63.6584L263.651 62.8123C263.388 61.5285 263.652 60.4694 264.445 59.6351C265.186 58.8072 265.69 57.982 265.957 57.1595C266.212 56.2333 266.633 54.9446 267.22 53.2932C267.858 51.6355 268.353 50.5219 268.705 49.9524L269.993 47.5832C270.54 46.4632 271.008 45.5634 271.399 44.8837C271.834 44.1459 272.354 43.4503 272.959 42.7971C273.402 41.6898 274.059 40.609 274.929 39.5545C275.846 38.4418 276.934 37.229 278.194 35.9161C279.22 34.8426 279.847 34.1602 280.075 33.8691C280.302 33.5779 280.766 33.2841 281.467 32.9875C282.219 32.6845 282.949 32.4107 283.656 32.1659L285.31 31.4891C285.745 31.1725 286.509 31.1838 287.604 31.5232C288.744 31.8044 289.67 32.2698 290.381 32.9194ZM285.783 41.7752C286.487 39.7936 286.769 38.2323 286.629 37.0914C286.578 36.6765 286.492 36.3976 286.369 36.2548C285.687 36.707 283.975 38.628 281.233 42.018C275.956 48.7725 272.935 53.539 272.171 56.3176L272.725 56.3286C274.95 55.1604 276.976 53.6483 278.801 51.7923C280.672 49.878 282.208 48.0311 283.411 46.2515C284.608 44.42 285.398 42.9279 285.783 41.7752ZM273.92 69.9215C273.704 68.1582 273.541 67.0464 273.432 66.586C273.322 66.1256 273.097 65.5743 272.755 64.9319L272.981 63.5617L271.638 64.2004C271.145 64.4715 270.827 64.8791 270.683 65.4232C270.618 65.7471 270.532 66.3366 270.426 67.1919C270.321 68.0471 270.132 68.6494 269.859 68.9988C269.677 69.2317 269.44 70.9454 269.148 74.1398C268.855 77.3342 268.757 79.3204 268.853 80.0983C268.91 80.565 269.12 80.7761 269.483 80.7315C269.742 80.6997 270.034 80.5059 270.359 80.1502C270.736 79.7881 271.094 79.2704 271.432 78.5971C272.219 77.2897 272.816 75.2949 273.224 72.6127C273.558 71.0451 273.79 70.148 273.92 69.9215ZM313.308 56.715C313.197 57.5184 312.955 58.3377 312.584 59.1729C312.212 60.0082 311.968 60.5909 311.851 60.9212C311.583 61.7436 311.374 62.401 311.224 62.8932C311.068 63.3336 310.957 63.7157 310.891 64.0396C311.986 64.379 312.593 65.4626 312.712 67.2905L311.999 68.5624L309.615 69.7237C309.516 70.6308 309.453 71.4019 309.425 72.037C309.436 72.9832 309.284 74.3179 308.969 76.0411L308.722 77.8876C308.565 78.7492 308.295 79.3352 307.912 79.6454C307.581 79.9493 307.036 80.2268 306.277 80.4779C305.953 80.4124 305.493 80.3109 304.897 80.1735C304.301 80.0361 303.864 79.9055 303.585 79.7818C303.307 79.658 303.022 79.4824 302.731 79.255C302.363 78.8264 302.147 78.3529 302.083 77.8343C302.026 77.3675 302.102 76.4895 302.312 75.2003C302.686 73.1013 302.939 71.5173 303.071 70.4483L301.777 70.844C301.006 70.9914 300.419 71.1424 300.017 71.2971C299.608 71.3999 299.304 71.4899 299.102 71.5673C298.713 71.8257 297.896 72.0313 296.651 72.1841C295.614 72.3114 294.697 72.3451 293.9 72.285C293.828 72.5571 293.743 72.936 293.645 73.4218C293.54 73.8558 293.426 74.4227 293.301 75.1223C293.117 76.1977 293.051 76.9429 293.102 77.3578L293.048 79.4963C292.995 79.9239 292.978 80.6368 292.995 81.6349C293.077 82.7303 292.919 83.5919 292.523 84.2197C292.132 84.8993 291.574 85.2837 290.848 85.3729C289.655 85.5193 288.186 84.9102 286.439 83.5454L285.994 82.4945L286.503 76.3518C286.569 76.0279 286.631 75.6781 286.69 75.3023C286.749 74.9266 286.779 74.528 286.78 74.1068L287.154 72.0078L287.714 69.4912C288.172 67.224 288.578 65.5949 288.93 64.6041C289.048 63.8526 289.209 63.0169 289.412 62.0971C289.666 61.1709 289.849 60.5167 289.96 60.1346C290.045 59.9663 290.248 59.0464 290.569 57.3751C290.884 55.6519 291.11 54.4923 291.247 53.8964C291.535 52.8082 292.223 52.1973 293.312 52.0635C294.395 51.878 295.393 52.0713 296.305 52.6436C297.211 53.1641 297.751 53.9138 297.924 54.8928C297.949 55.1002 297.968 55.4664 297.98 55.9914C297.985 56.4645 297.945 56.7852 297.861 56.9535L295.313 66.4262C295.773 66.317 296.334 66.1692 296.995 65.9827C297.651 65.7443 298.134 65.606 298.445 65.5678C299.152 65.3231 300.05 65.1339 301.139 65.0002C302.228 64.8664 303.093 64.8392 303.735 64.9183C303.943 64.4716 304.162 63.6814 304.391 62.5478C304.437 62.0683 304.588 61.3655 304.843 60.4393C305.092 59.0399 305.503 57.6734 306.077 56.3396C306.109 56.1776 306.136 55.9638 306.156 55.6981C306.169 55.3806 306.44 54.5841 306.968 53.3085C307.747 52.7917 308.473 52.492 309.147 52.4092C310.185 52.2818 311.108 52.5107 311.916 53.0957C312.777 53.6744 313.268 54.4564 313.389 55.4417C313.434 55.8048 313.407 56.2292 313.308 56.715ZM322.425 79.9954C321.802 80.0719 321.297 80.0286 320.909 79.8658C320.52 79.7029 319.954 79.3776 319.209 78.8899C318.039 77.9282 317.098 76.9119 316.387 75.841C315.67 74.7183 315.336 73.7065 315.383 72.8058C315.494 72.4237 315.501 72.0543 315.405 71.6976C315.36 71.3346 315.331 71.1012 315.319 70.9975C315.086 70.8155 314.966 70.6986 314.96 70.6468C314.947 70.543 314.989 70.4589 315.087 70.3943C315.178 70.2778 315.243 70.1646 315.282 70.0545C315.593 70.0163 315.662 69.7183 315.488 69.1606C315.333 68.7584 315.403 67.8286 315.698 66.371C315.993 64.9135 316.43 63.5437 317.01 62.2618C317.466 61.2583 318.152 59.9895 319.069 58.4556C320.038 56.9152 320.919 55.7279 321.712 54.8936C324.031 52.3452 326.199 50.7103 328.216 49.9889C329.221 49.6022 330.217 49.3484 331.202 49.2274C332.706 49.0428 333.924 49.3144 334.856 50.0422C336.054 50.3689 336.966 50.9412 337.593 51.7592C338.22 52.5771 338.7 53.7026 339.034 55.1356C339.124 55.4404 339.214 55.9558 339.303 56.6818C339.774 60.5195 338.813 64.6911 336.418 69.1965C335.435 71.0544 334.411 72.5751 333.346 73.7588C332.28 74.9425 330.955 76.158 329.371 77.4053C328.514 78.1423 327.58 78.6781 326.568 79.0129C325.556 79.3477 324.175 79.6752 322.425 79.9954ZM329.194 69.5307C330.071 68.5281 330.663 67.5605 330.97 66.6279C331.322 65.6371 331.773 63.9499 332.322 61.5661C332.576 61.0612 332.617 60.1086 332.445 58.7083C332.292 57.4637 332.025 56.7859 331.643 56.6748C331.358 56.4992 331.034 56.4337 330.671 56.4783C330.204 56.5356 329.497 56.991 328.549 57.8444C326.925 59.6231 325.595 61.4445 324.561 63.3087C323.572 65.1147 322.978 67.1354 322.778 69.3709C322.752 69.5847 322.764 69.8991 322.815 70.3139C323.032 72.0772 323.762 72.8824 325.007 72.7296C326.2 72.5831 327.596 71.5168 329.194 69.5307Z" fill="white"/>
<path d="M101.002 190.181C101.835 190.3 102.936 190.419 104.305 190.538C105.733 190.598 107.042 190.628 108.232 190.628C111.208 190.628 113.528 190.271 115.195 189.557C116.861 188.783 117.694 187.414 117.694 185.451C117.694 183.546 116.92 182.237 115.373 181.523C113.885 180.75 111.684 180.363 108.768 180.363H101.002V190.181ZM108.5 171.437C110.702 171.437 112.487 171.169 113.856 170.633C115.224 170.038 115.909 168.789 115.909 166.884C115.909 165.099 115.135 163.879 113.588 163.225C112.041 162.57 110.017 162.243 107.518 162.243C106.685 162.243 105.584 162.302 104.216 162.421C102.906 162.481 101.835 162.57 101.002 162.689V171.437H108.5ZM108.054 200.893C106.388 200.893 104.602 200.833 102.698 200.714C100.794 200.595 98.9195 200.417 97.0747 200.179C95.23 200 93.4746 199.792 91.8084 199.554C90.2017 199.256 88.833 198.988 87.7024 198.75V153.763C88.833 153.525 90.2017 153.317 91.8084 153.138C93.4746 152.9 95.23 152.692 97.0747 152.513C98.9195 152.335 100.794 152.216 102.698 152.156C104.602 152.037 106.388 151.978 108.054 151.978C111.922 151.978 115.165 152.365 117.783 153.138C120.461 153.912 122.603 154.923 124.21 156.173C125.876 157.423 127.066 158.821 127.78 160.368C128.494 161.916 128.851 163.463 128.851 165.01C128.851 167.093 128.346 168.997 127.334 170.723C126.322 172.448 125.043 173.698 123.496 174.472C124.329 174.829 125.162 175.334 125.995 175.989C126.888 176.644 127.691 177.447 128.405 178.399C129.119 179.292 129.685 180.392 130.101 181.702C130.577 182.951 130.815 184.409 130.815 186.075C130.815 187.98 130.428 189.824 129.655 191.61C128.941 193.395 127.691 194.972 125.906 196.34C124.121 197.709 121.77 198.81 118.854 199.643C115.938 200.476 112.338 200.893 108.054 200.893ZM149.104 188.218H158.03C160.232 184.409 161.957 180.63 163.207 176.882C164.457 173.133 165.379 169.324 165.974 165.456C166.629 161.588 167.015 157.601 167.134 153.495C167.313 149.389 167.402 145.075 167.402 140.553V138.143H208.283V188.218H218.905V216.513H205.516V200H162.493V216.513H149.104V188.218ZM180.523 149.925C180.404 153.138 180.196 156.441 179.899 159.833C179.601 163.225 179.155 166.587 178.56 169.919C177.965 173.192 177.161 176.405 176.15 179.559C175.198 182.654 173.978 185.54 172.49 188.218H194.716V149.925H180.523ZM223.392 200V138.143H237.228V174.65C239.37 171.437 241.661 168.104 244.101 164.653C246.54 161.142 248.98 157.78 251.42 154.566C253.919 151.294 256.359 148.229 258.739 145.373C261.12 142.516 263.292 140.106 265.255 138.143H276.591V200H262.845V159.476C257.609 165.605 252.67 172.121 248.028 179.024C243.386 185.927 239.072 192.919 235.085 200H223.392ZM322.905 200C321.655 197.977 320.168 195.805 318.442 193.484C316.776 191.104 314.931 188.753 312.908 186.432C310.944 184.052 308.891 181.791 306.749 179.649C304.607 177.447 302.464 175.513 300.322 173.847V200H286.397V138.143H300.322V161.529C303.952 157.72 307.582 153.763 311.212 149.657C314.901 145.492 318.323 141.653 321.477 138.143H337.99C333.765 143.141 329.51 147.961 325.226 152.603C321.001 157.244 316.538 161.916 311.837 166.617C316.776 170.723 321.536 175.602 326.118 181.255C330.76 186.908 335.193 193.157 339.418 200H322.905ZM367.933 201.25C357.877 201.25 350.2 198.453 344.904 192.859C339.668 187.266 337.049 179.321 337.049 169.027C337.049 163.909 337.853 159.357 339.459 155.37C341.066 151.323 343.268 147.931 346.065 145.194C348.861 142.397 352.194 140.285 356.062 138.857C359.93 137.428 364.125 136.714 368.647 136.714C371.266 136.714 373.646 136.923 375.788 137.339C377.931 137.696 379.805 138.143 381.412 138.678C383.018 139.154 384.357 139.66 385.428 140.196C386.5 140.731 387.273 141.148 387.749 141.445L383.732 152.692C381.828 151.68 379.597 150.818 377.038 150.103C374.539 149.389 371.682 149.032 368.469 149.032C366.327 149.032 364.214 149.389 362.131 150.103C360.108 150.818 358.293 151.978 356.687 153.585C355.139 155.132 353.89 157.155 352.938 159.654C351.986 162.154 351.509 165.188 351.509 168.759C351.509 171.615 351.807 174.293 352.402 176.792C353.057 179.232 354.068 181.345 355.437 183.13C356.865 184.915 358.71 186.343 360.971 187.414C363.232 188.426 365.97 188.932 369.183 188.932C371.206 188.932 373.021 188.813 374.628 188.575C376.235 188.337 377.663 188.069 378.912 187.771C380.162 187.414 381.263 187.027 382.215 186.611C383.167 186.194 384.03 185.808 384.804 185.451L388.642 196.608C386.678 197.798 383.911 198.869 380.341 199.821C376.77 200.774 372.634 201.25 367.933 201.25ZM393.144 200V138.143H406.979V174.65C409.121 171.437 411.412 168.104 413.852 164.653C416.292 161.142 418.732 157.78 421.172 154.566C423.671 151.294 426.111 148.229 428.491 145.373C430.871 142.516 433.043 140.106 435.007 138.143H446.343V200H432.597V159.476C427.36 165.605 422.421 172.121 417.78 179.024C413.138 185.927 408.824 192.919 404.837 200H393.144Z" fill="#FF8200"/>
</svg>
