<svg width="60" height="61" viewBox="0 0 60 61" fill="none" xmlns="http://www.w3.org/2000/svg">
<rect y="0.345215" width="60" height="60" rx="15" fill="white"/>
<g clip-path="url(#clip0)">
<path d="M38.2485 13.3525L33.7099 13.3452C28.6108 13.3452 25.3156 16.726 25.3156 21.9587V25.9301H20.7522C20.3578 25.9301 20.0385 26.2497 20.0385 26.6441V32.3982C20.0385 32.7925 20.3582 33.1118 20.7522 33.1118H25.3156V47.6312C25.3156 48.0255 25.6349 48.3449 26.0293 48.3449H31.9833C32.3776 48.3449 32.6969 48.0252 32.6969 47.6312V33.1118H38.0326C38.427 33.1118 38.7463 32.7925 38.7463 32.3982L38.7485 26.6441C38.7485 26.4547 38.6731 26.2734 38.5395 26.1394C38.4058 26.0054 38.2238 25.9301 38.0344 25.9301H32.6969V22.5635C32.6969 20.9453 33.0825 20.1239 35.1904 20.1239L38.2478 20.1228C38.6418 20.1228 38.9611 19.8031 38.9611 19.4092V14.0662C38.9611 13.6726 38.6422 13.3532 38.2485 13.3525Z" fill="#FF8200"/>
</g>
<defs>
<clipPath id="clip0">
<rect width="35" height="34.9996" fill="white" transform="translate(12 13.3452)"/>
</clipPath>
</defs>
</svg>
