<svg width="60" height="61" viewBox="0 0 60 61" fill="none" xmlns="http://www.w3.org/2000/svg">
<rect y="0.345215" width="60" height="60" rx="15" fill="white"/>
<g clip-path="url(#clip0)">
<path d="M47.9657 23.6353C47.8837 21.7756 47.583 20.4971 47.1522 19.3893C46.7078 18.2133 46.0241 17.1605 45.1283 16.2852C44.253 15.3964 43.1933 14.7057 42.0309 14.2682C40.9167 13.8374 39.6448 13.5367 37.7851 13.4547C35.9116 13.3658 35.3168 13.3452 30.5649 13.3452C25.813 13.3452 25.2182 13.3658 23.3516 13.4478C21.4919 13.5298 20.2134 13.8308 19.1058 14.2613C17.9296 14.7057 16.8767 15.3895 16.0015 16.2852C15.1127 17.1605 14.4223 18.2202 13.9845 19.3826C13.5537 20.4971 13.253 21.7687 13.171 23.6284C13.082 25.5019 13.0615 26.0967 13.0615 30.8486C13.0615 35.6005 13.082 36.1953 13.164 38.062C13.246 39.9216 13.547 41.2002 13.9778 42.308C14.4223 43.484 15.1127 44.5368 16.0015 45.412C16.8767 46.3009 17.9365 46.9915 19.0988 47.429C20.2134 47.8598 21.4849 48.1606 23.3449 48.2425C25.2112 48.3248 25.8063 48.3451 30.5582 48.3451C35.3101 48.3451 35.9049 48.3248 37.7715 48.2425C39.6312 48.1606 40.9097 47.8598 42.0173 47.429C44.3695 46.5196 46.2292 44.6599 47.1386 42.308C47.5691 41.1935 47.8701 39.9216 47.9521 38.062C48.0341 36.1953 48.0547 35.6005 48.0547 30.8486C48.0547 26.0967 48.0477 25.5019 47.9657 23.6353ZM44.8139 37.9252C44.7386 39.6345 44.4515 40.5576 44.2122 41.1729C43.6241 42.6977 42.4139 43.9078 40.8892 44.4959C40.2738 44.7352 39.3441 45.0224 37.6415 45.0974C35.7954 45.1797 35.2417 45.2 30.5718 45.2C25.9019 45.2 25.3413 45.1797 23.5019 45.0974C21.7926 45.0224 20.8696 44.7352 20.2542 44.4959C19.4955 44.2155 18.8048 43.7711 18.2442 43.1899C17.663 42.6224 17.2186 41.9386 16.9382 41.1799C16.6989 40.5645 16.4117 39.6345 16.3367 37.9322C16.2544 36.0861 16.2341 35.5322 16.2341 30.8623C16.2341 26.1923 16.2544 25.6317 16.3367 23.7926C16.4117 22.0833 16.6989 21.1603 16.9382 20.5449C17.2186 19.7859 17.663 19.0955 18.2511 18.5346C18.8184 17.9534 19.5021 17.509 20.2612 17.2288C20.8765 16.9895 21.8065 16.7024 23.5089 16.6271C25.3549 16.5451 25.9089 16.5245 30.5785 16.5245C35.2554 16.5245 35.809 16.5451 37.6484 16.6271C39.3577 16.7024 40.2807 16.9895 40.8961 17.2288C41.6549 17.509 42.3455 17.9534 42.9062 18.5346C43.4873 19.1021 43.9317 19.7859 44.2122 20.5449C44.4515 21.1603 44.7386 22.09 44.8139 23.7926C44.8959 25.6387 44.9165 26.1923 44.9165 30.8623C44.9165 35.5322 44.8959 36.0791 44.8139 37.9252Z" fill="#FF8200"/>
<path d="M30.5649 21.8574C25.6012 21.8574 21.5739 25.8845 21.5739 30.8484C21.5739 35.8124 25.6012 39.8395 30.5649 39.8395C35.5289 39.8395 39.5559 35.8124 39.5559 30.8484C39.5559 25.8845 35.5289 21.8574 30.5649 21.8574ZM30.5649 36.6807C27.3447 36.6807 24.7327 34.0689 24.7327 30.8484C24.7327 27.628 27.3447 25.0162 30.5649 25.0162C33.7854 25.0162 36.3972 27.628 36.3972 30.8484C36.3972 34.0689 33.7854 36.6807 30.5649 36.6807Z" fill="#FF8200"/>
<path d="M42.0106 21.5023C42.0106 22.6614 41.0708 23.6013 39.9114 23.6013C38.7522 23.6013 37.8124 22.6614 37.8124 21.5023C37.8124 20.3429 38.7522 19.4033 39.9114 19.4033C41.0708 19.4033 42.0106 20.3429 42.0106 21.5023Z" fill="#FF8200"/>
</g>
<defs>
<clipPath id="clip0">
<rect width="35" height="35" fill="white" transform="translate(13 13.3452)"/>
</clipPath>
</defs>
</svg>
