<svg width="60" height="61" viewBox="0 0 60 61" fill="none" xmlns="http://www.w3.org/2000/svg">
<rect y="0.345215" width="60" height="60" rx="15" fill="white"/>
<g clip-path="url(#clip0)">
<path d="M29.5 32.2858C34.7302 32.2858 38.9703 28.0458 38.9703 22.8155C38.9703 17.5851 34.7303 13.3452 29.5 13.3452C24.2696 13.3452 20.0297 17.5852 20.0297 22.8155C20.0361 28.0432 24.2724 32.2794 29.5 32.2858ZM29.5 17.7161C32.3163 17.7161 34.5994 19.9992 34.5994 22.8155C34.5994 25.6319 32.3163 27.915 29.5 27.915C26.6836 27.915 24.4005 25.6319 24.4005 22.8155C24.4005 19.9992 26.6837 17.7161 29.5 17.7161Z" fill="#FF8200"/>
<path d="M38.7765 36.7735C39.8057 36.0956 40.4259 34.9462 40.4273 33.7138C40.4416 32.691 39.8645 31.7518 38.9456 31.3025C38.0014 30.8309 36.8713 30.9371 36.0316 31.5765C32.1399 34.4137 26.8616 34.4137 22.9699 31.5765C22.1289 30.9405 21.0007 30.8344 20.0559 31.3025C19.1374 31.7518 18.56 32.69 18.5728 33.7123C18.5749 34.9445 19.1949 36.0935 20.2235 36.772C21.5433 37.6496 22.9805 38.3364 24.4925 38.8118C24.7489 38.8914 25.0136 38.9652 25.2865 39.0332L20.8836 43.3386C19.7286 44.4593 19.7007 46.304 20.8213 47.4591C21.942 48.6141 23.7867 48.642 24.9418 47.5214C24.9658 47.498 24.9895 47.4743 25.0127 47.4501L29.5002 42.8053L33.9964 47.4589C35.1161 48.6148 36.9609 48.6441 38.1168 47.5244C39.2727 46.4047 39.3021 44.5599 38.1824 43.404C38.1589 43.3798 38.1351 43.3561 38.1109 43.3327L33.7152 39.0317C33.9881 38.9618 34.2537 38.8875 34.5121 38.8088C36.0225 38.3353 37.4583 37.65 38.7765 36.7735Z" fill="#FF8200"/>
</g>
<defs>
<clipPath id="clip0">
<rect width="35" height="35" fill="white" transform="translate(12 13.3452)"/>
</clipPath>
</defs>
</svg>
