<svg width="60" height="61" viewBox="0 0 60 61" fill="none" xmlns="http://www.w3.org/2000/svg">
<rect y="0.345215" width="60" height="60" rx="15" fill="white"/>
<g clip-path="url(#clip0)">
<path d="M46.6881 38.6725C46.594 38.515 46.0121 37.2505 43.2119 34.6516C40.2804 31.9301 40.6742 32.372 44.2051 27.6664C46.3555 24.8005 47.2153 23.0504 46.9462 22.3022C46.6903 21.589 45.1086 21.7772 45.1086 21.7772L39.8494 21.8078C39.8494 21.8078 39.46 21.7553 39.1691 21.9281C38.8869 22.0988 38.7053 22.4925 38.7053 22.4925C38.7053 22.4925 37.8718 24.7108 36.7605 26.5966C34.4175 30.5759 33.479 30.786 33.0961 30.5388C32.2057 29.9634 32.4289 28.2242 32.4289 26.9904C32.4289 23.1335 33.013 21.5256 31.2891 21.1099C30.7159 20.9721 30.2959 20.8802 28.8324 20.8649C26.9553 20.8452 25.3649 20.8715 24.4658 21.3112C23.8664 21.6043 23.4048 22.2585 23.687 22.2956C24.0348 22.3416 24.8224 22.5078 25.2402 23.0766C25.7806 23.8095 25.7609 25.459 25.7609 25.459C25.7609 25.459 26.0715 29.9984 25.0368 30.5628C24.3258 30.95 23.3523 30.1603 21.2631 26.5485C20.1933 24.6999 19.3838 22.6544 19.3838 22.6544C19.3838 22.6544 19.2285 22.2738 18.9507 22.0703C18.6138 21.8231 18.1413 21.7444 18.1413 21.7444L13.1403 21.775C13.1403 21.775 12.3899 21.7969 12.1142 22.1228C11.8692 22.4138 12.0946 23.0132 12.0946 23.0132C12.0946 23.0132 16.0105 32.1729 20.4427 36.7911C24.5095 41.0242 29.1255 40.7464 29.1255 40.7464H31.2169C31.2169 40.7464 31.8491 40.6764 32.1707 40.3285C32.4683 40.0091 32.4573 39.4097 32.4573 39.4097C32.4573 39.4097 32.4158 36.603 33.7196 36.1895C35.0038 35.7826 36.6533 38.9022 38.4012 40.1032C39.7225 41.0111 40.7267 40.812 40.7267 40.812L45.4017 40.7464C45.4017 40.7464 47.8475 40.5954 46.6881 38.6725Z" fill="#FF8200"/>
</g>
<defs>
<clipPath id="clip0">
<rect width="35" height="35" fill="white" transform="translate(12 13.3452)"/>
</clipPath>
</defs>
</svg>
