<svg width="60" height="61" viewBox="0 0 60 61" fill="none" xmlns="http://www.w3.org/2000/svg">
<rect y="0.345215" width="60" height="60" rx="15" fill="#ffffff"/>
<g clip-path="url(#clip0)">
<path d="M47.2256 21.9915L47.2694 22.2774C46.8465 20.7767 45.7046 19.6188 44.2535 19.1974L44.2229 19.1901C41.4944 18.4492 30.5146 18.4492 30.5146 18.4492C30.5146 18.4492 19.5625 18.4347 16.8063 19.1901C15.3275 19.6188 14.1842 20.7767 13.7685 22.2467L13.7613 22.2774C12.7419 27.6017 12.7346 33.9994 13.8065 39.7001L13.7613 39.4113C14.1842 40.9119 15.326 42.0699 16.7771 42.4913L16.8077 42.4986C19.5333 43.2409 30.516 43.2409 30.516 43.2409C30.516 43.2409 41.4667 43.2409 44.2244 42.4986C45.7046 42.0699 46.8479 40.9119 47.2635 39.4419L47.2708 39.4113C47.7346 36.9351 48 34.0855 48 31.1747C48 31.0682 48 30.9603 47.9985 30.8524C48 30.7532 48 30.6351 48 30.5169C48 27.6047 47.7346 24.7551 47.2256 21.9915ZM27.0117 36.1694V25.5338L36.1496 30.8597L27.0117 36.1694Z" fill="#FF8200"/>
</g>
<defs>
<clipPath id="clip0">
<rect width="35" height="35" fill="white" transform="translate(13 13.3452)"/>
</clipPath>
</defs>
</svg>
