<svg width="63" height="62" viewBox="0 0 63 62" fill="none" xmlns="http://www.w3.org/2000/svg">
<path d="M62.6 30.837C62.6 36.337 61.1 41.737 58.3 46.437C58.3 46.437 47.6 50.237 31.7 50.237C15.8 50.237 5.2 46.437 5.2 46.437C-3.4 31.737 1.5 12.837 16.2 4.23704C30.9 -4.36296 49.8 0.537045 58.4 15.237C61.2 19.937 62.6 25.337 62.6 30.837Z" fill="#FF8200"/>
<path d="M45.6 34.3371C45.6 33.8371 45.2 33.4371 44.7 33.4371H43V12.5371C43 12.0371 42.6 11.6371 42.1 11.6371H25.4C25 11.6371 24.6 11.6371 24.3 11.7371C24 11.8371 23.7 11.9371 23.5 12.2371C23.3 12.5371 23.2 12.9371 23.2 13.3371V15.5371C23.2 16.3371 23.2 17.1371 23.2 18.0371C23.2 18.9371 23.1 23.3371 23 24.2371C22.9 25.1371 22.8 26.0371 22.6 26.9371C22.4 27.8371 22.2 28.6371 21.9 29.5371C21.6 30.3371 21.3 31.0371 20.9 31.7371C20.6 32.2371 20.2 32.7371 19.8 33.1371C19.6 33.3371 19.3 33.4371 19.1 33.4371C18.9 33.4371 18.6 33.5371 18.5 33.6371C18.2 33.8371 18.1 34.1371 18.1 34.7371V42.2371C18.1 42.7371 18.5 43.1371 19 43.1371H24C24.5 43.1371 24.9 42.7371 24.9 42.2371V41.4371V38.7371H39.1V42.2371C39.1 42.7371 39.5 43.1371 40 43.1371H45C45.5 43.1371 45.9 42.7371 45.9 42.2371L45.6 34.3371ZM36.4 33.5371H26.9C27.4 32.7371 27.8 31.9371 28.1 31.0371C28.4 30.0371 28.7 29.0371 28.9 28.0371C29.1 27.0371 29.2 25.9371 29.3 24.9371C29.4 23.9371 29.4 19.5371 29.4 18.8371V17.3371H36.4V33.5371Z" fill="white"/>
<path d="M6.70001 48.6371C16.5 62.5371 35.7 65.8371 49.6 56.0371C52.5 54.0371 55 51.5371 57 48.6371C57 48.6371 44.5 52.9371 31.8 52.9371C19.1 52.9371 6.70001 48.6371 6.70001 48.6371Z" fill="#78BE20"/>
<path d="M31.8 52.9371C44.5 52.9371 57 48.6371 57 48.6371C49.6 54.0371 40.8 57.0371 31.6 57.2371C22.6 57.1371 13.8 54.1371 6.59998 48.7371C6.59998 48.6371 19.1 52.9371 31.8 52.9371Z" fill="#97D700"/>
</svg>
