<svg width="410" height="218" viewBox="0 0 410 218" fill="none" xmlns="http://www.w3.org/2000/svg">
<rect x="1.59912" y="53.4531" width="365.75" height="99.0573" rx="10.8854" transform="rotate(-7 1.59912 53.4531)" fill="#FF8200"/>
<path d="M58.5151 87.2626C58.8972 87.3736 59.3626 87.9482 59.9112 88.9863C60.4534 89.9726 60.9756 91.2245 61.4778 92.7421C61.4596 95.1659 61.3353 97.1553 61.1051 98.7102C60.9267 100.259 60.6092 101.745 60.1524 103.17C59.702 104.647 59.2621 105.78 58.8326 106.57C58.3968 107.308 57.7922 108.171 57.0188 109.161L54.019 111.741C52.4996 113.085 51.3213 113.993 50.4843 114.465C49.7055 114.981 48.6937 115.316 47.4491 115.469C46.8131 115.863 45.9992 116.094 45.0075 116.164C44.0222 116.285 43.3998 116.361 43.1405 116.393C41.5975 116.688 40.2987 116.4 39.2442 115.529C38.1897 114.658 37.5733 113.497 37.395 112.045C37.3377 111.578 37.3223 111.238 37.3487 111.024C37.9856 110.209 38.693 109.753 39.4709 109.658C39.9895 109.594 40.4949 109.637 40.9871 109.787C41.5248 109.879 42.027 109.897 42.4938 109.839C42.9605 109.782 43.3659 109.653 43.7098 109.453C44.0018 109.259 44.3553 109.137 44.7702 109.086C45.237 109.029 45.519 108.968 45.6164 108.903C46.9074 108.271 48.3027 107.415 49.8021 106.336C51.2951 105.205 52.3961 104.096 53.1049 103.009C53.144 102.899 53.1767 102.737 53.2031 102.523C53.275 102.251 53.3469 101.979 53.4188 101.707C52.2451 102.009 51.0778 102.363 49.9168 102.769C48.8923 103 48.1986 103.138 47.8356 103.182C47.0576 103.278 46.3903 103.202 45.8335 102.954C45.3285 102.7 44.8727 102.204 44.466 101.464C44.3114 101.062 44.2245 100.783 44.2054 100.627C44.1353 100.057 44.2532 99.5159 44.5589 99.0046C44.8646 98.4933 45.0338 98.1566 45.0666 97.9947L45.7681 97.2768L46.9254 97.0558C47.4959 96.9857 48.0304 97.0517 48.529 97.2537C48.3024 97.1236 48.6787 96.9721 49.6576 96.7993C50.6821 96.5682 52.157 96.3608 54.0822 96.177L54.16 96.1675C54.523 96.1229 54.6631 95.7635 54.5803 95.0893C54.5039 94.467 54.2988 93.4394 53.9649 92.0064C53.6292 91.4159 53.293 91.036 52.9564 90.8668C52.6197 90.6975 52.4223 90.5902 52.3641 90.5447C51.5862 90.6402 50.7432 90.849 49.8352 91.171C48.979 91.4867 48.4891 91.7838 48.3653 92.0622C47.0533 93.3814 45.8528 94.1079 44.7637 94.2416C43.5709 94.3881 42.778 93.9327 42.385 92.8754L42.1353 91.4848C41.9188 89.7215 41.9056 88.3281 42.0958 87.3045C42.0903 86.8314 42.4188 86.291 43.0812 85.6832C43.7435 85.0755 44.7912 84.6047 46.2242 84.2708C47.3852 83.865 48.4324 83.6049 49.3659 83.4902C50.7661 83.3183 52.2273 83.4284 53.7494 83.8206C54.5592 83.9844 55.4817 84.4239 56.5171 85.139C57.5525 85.8542 58.2185 86.562 58.5151 87.2626ZM89.7386 80.2703C90.2044 80.6342 90.4819 81.1792 90.571 81.9053C90.6538 82.5795 90.581 83.2728 90.3526 83.9851C90.1179 84.6457 89.8153 85.1829 89.445 85.5969C88.2695 86.7414 86.9834 88.0575 85.5868 89.545C82.547 92.6557 80.2705 94.9093 78.7574 96.3058C79.1259 96.7344 79.9174 97.8216 81.132 99.5676L82.1883 101.096C82.434 101.382 82.7442 101.765 83.119 102.245C83.4939 102.726 83.8756 103.047 84.264 103.21C84.6462 103.321 85.2521 103.326 86.0819 103.224C87.0663 103.524 87.7168 103.892 88.0335 104.327C88.3437 104.71 88.5275 105.135 88.5848 105.601C88.6357 106.016 88.703 106.35 88.7867 106.603L88.4728 107.905C88.4728 107.905 88.2517 108.248 87.8095 108.934C87.4192 109.614 86.5758 110.033 85.2793 110.192C84.8125 110.25 84.1743 110.196 83.3645 110.033C81.907 109.738 80.2921 108.804 78.5197 107.232C78.0994 106.81 76.8239 104.782 74.6931 101.148C73.615 99.2272 72.753 97.7801 72.107 96.8065C71.6821 98.4906 71.5301 99.8254 71.6511 100.811C71.2799 101.646 70.9923 102.734 70.7885 104.075C70.5847 105.416 70.45 106.249 70.3845 106.573C70.2325 107.907 69.5688 109.147 68.3932 110.292C67.3105 110.477 66.4971 110.498 65.9531 110.354C65.4545 110.152 64.788 109.655 63.9537 108.863C63.4952 108.129 63.215 107.348 63.1131 106.518C63.0431 105.947 63.0608 105.235 63.1664 104.379C63.2255 104.004 63.8211 101.351 64.953 96.4215C65.8693 92.3082 66.3407 90.1446 66.367 89.9308C66.4589 89.3931 66.6191 88.7681 66.8475 88.0557C67.1277 87.3369 67.3297 86.8383 67.4535 86.5599C68.1895 84.8376 68.6204 83.416 68.746 82.2951C68.8579 81.4917 69.1704 80.8216 69.6836 80.2849C70.2422 79.6898 70.8587 79.3509 71.5328 79.2682C72.4145 79.1599 73.2142 79.4565 73.9321 80.158L73.9225 80.0802C74.0844 80.113 74.2819 80.2204 74.5148 80.4023C74.7932 80.5261 74.9938 80.6594 75.1166 80.8022C75.8863 81.4973 76.3317 82.3376 76.4527 83.3229C76.5354 83.9971 76.4303 84.6417 76.1374 85.2568L75.111 87.8307C74.395 89.2873 73.8213 90.8317 73.39 92.4639C74.3562 92.1874 75.0632 91.9427 75.5108 91.7298C75.9585 91.5169 76.3806 91.0965 76.7773 90.4688C77.2777 89.8283 77.8919 89.0422 78.6198 88.1105C79.3995 87.1725 80.1533 86.2377 80.8812 85.306C81.8038 84.2452 82.6518 83.2198 83.4252 82.2299C83.4643 82.1198 83.614 81.8383 83.8742 81.3852C84.1799 80.8738 84.4952 80.4403 84.82 80.0846C85.1967 79.7225 85.6088 79.435 86.0565 79.2221C87.1064 79.1985 87.9034 79.2585 88.4475 79.4023C89.0435 79.5397 89.4738 79.829 89.7386 80.2703ZM102.164 108.277C101.555 108.457 101.068 108.569 100.705 108.614C98.5792 108.875 96.6035 108.433 94.7784 107.289C92.9988 106.086 91.9785 104.421 91.7174 102.295L91.4868 101.06C91.1875 98.6225 91.385 95.7292 92.0793 92.3802C92.7735 89.0311 93.8003 86.2466 95.1597 84.0266C96.2715 82.3635 97.2369 81.0078 98.0558 79.9597C98.8746 78.9116 99.6539 78.1842 100.394 77.7776C101.036 77.4355 101.863 77.097 102.875 76.7622C103.886 76.4274 104.652 76.2282 105.17 76.1645C106.239 76.2965 107.243 76.5417 108.182 76.9002C109.173 77.2523 109.703 77.7136 109.774 78.2841L110.21 78.6253C110.573 78.5807 111.058 79.1002 111.665 80.1839C112.324 81.2611 112.71 82.2665 112.825 83.2C112.882 83.6667 112.852 84.0652 112.735 84.3955C112.648 85.4063 112.351 86.4167 111.844 87.4266C111.388 88.4301 110.952 88.9573 110.538 89.0083C109.967 89.0783 109.701 89.2689 109.739 89.5801C109.771 89.8394 109.476 90.0073 108.853 90.0837C108.335 90.1474 107.778 90.1105 107.182 89.9731C106.579 89.7838 106.204 89.5141 106.056 89.1638C106.024 88.9045 106.104 87.8418 106.296 85.9757C106.356 85.1787 106.354 84.5209 106.291 84.0023C106.176 83.0688 105.807 82.6403 105.185 82.7167C105.03 82.7358 104.653 82.8873 104.056 83.1711C102.797 84.0627 101.813 85.0521 101.104 86.1394C100.441 87.1684 99.9002 88.5509 99.4817 90.2868C99.0631 92.0228 98.6332 94.5234 98.1918 97.7888C98.1127 98.4302 98.1049 99.0102 98.1686 99.5289C98.245 100.151 98.3865 100.66 98.593 101.056C98.7932 101.4 98.9742 101.588 99.1362 101.621C99.4082 101.693 99.8813 101.687 100.555 101.605C101.852 101.445 102.861 101.085 103.581 100.523C104.451 99.8893 105.288 99.2074 106.094 98.4768C106.893 97.6944 107.386 97.2126 107.574 97.0316C107.665 96.9151 107.838 96.6044 108.092 96.0995C108.339 95.5427 108.635 95.1642 108.979 94.964C109.233 94.4591 109.587 94.1261 110.041 93.965C110.495 93.804 110.955 93.6948 111.422 93.6375C111.889 93.5802 112.2 93.542 112.355 93.5229C113.055 93.6476 113.761 94.0347 114.472 94.6844C115.183 95.334 115.344 95.788 114.955 96.0464C114.799 96.0655 114.702 96.1301 114.663 96.2402C114.624 96.3503 114.608 96.4312 114.614 96.4831C114.749 96.7297 114.421 97.4807 113.627 98.7363C112.827 99.94 111.921 101.13 110.907 102.308C109.887 103.433 109.17 104.021 108.755 104.072C108.547 104.098 108.369 104.146 108.22 104.217C108.071 104.288 108.009 104.427 108.034 104.635C108.06 104.842 107.316 105.433 105.804 106.409C104.338 107.326 103.124 107.949 102.164 108.277ZM143.186 73.7077C143.652 74.0717 143.93 74.6167 144.019 75.3427C144.102 76.0169 144.029 76.7102 143.8 77.4226C143.566 78.0831 143.263 78.6204 142.893 79.0343C141.717 80.1789 140.431 81.4949 139.035 82.9825C135.995 86.0931 133.718 88.3467 132.205 89.7433C132.574 90.1718 133.365 91.2591 134.58 93.0051L135.636 94.5336C135.882 94.8193 136.192 95.2023 136.567 95.6827C136.942 96.1631 137.323 96.4848 137.712 96.6476C138.094 96.7587 138.7 96.7632 139.53 96.6613C140.514 96.9616 141.165 97.3292 141.481 97.7641C141.791 98.1471 141.975 98.572 142.033 99.0388C142.083 99.4537 142.151 99.7876 142.234 100.041L141.921 101.342C141.921 101.342 141.699 101.685 141.257 102.371C140.867 103.051 140.024 103.471 138.727 103.63C138.26 103.687 137.622 103.634 136.812 103.47C135.355 103.175 133.74 102.242 131.967 100.669C131.547 100.247 130.272 98.2192 128.141 94.5853C127.063 92.6646 126.201 91.2175 125.555 90.244C125.13 91.9281 124.978 93.2628 125.099 94.2481C124.728 95.0834 124.44 96.1715 124.236 97.5126C124.032 98.8537 123.898 99.6862 123.832 100.01C123.68 101.345 123.017 102.584 121.841 103.729C120.758 103.915 119.945 103.935 119.401 103.792C118.902 103.59 118.236 103.092 117.402 102.3C116.943 101.567 116.663 100.785 116.561 99.9553C116.491 99.3849 116.509 98.672 116.614 97.8168C116.673 97.441 117.269 94.7884 118.401 89.859C119.317 85.7456 119.788 83.5821 119.815 83.3683C119.907 82.8306 120.067 82.2055 120.295 81.4931C120.575 80.7743 120.777 80.2758 120.901 79.9974C121.637 78.2751 122.068 76.8535 122.194 75.7326C122.306 74.9292 122.618 74.2591 123.131 73.7223C123.69 73.1273 124.306 72.7884 124.981 72.7056C125.862 72.5974 126.662 72.894 127.38 73.5955L127.37 73.5177C127.532 73.5504 127.73 73.6578 127.963 73.8398C128.241 73.9635 128.442 74.0968 128.564 74.2397C129.334 74.9348 129.779 75.775 129.9 76.7604C129.983 77.4346 129.878 78.0792 129.585 78.6942L128.559 81.2681C127.843 82.7247 127.269 84.2692 126.838 85.9014C127.804 85.6248 128.511 85.3801 128.959 85.1672C129.406 84.9543 129.828 84.534 130.225 83.9062C130.725 83.2657 131.34 82.4796 132.068 81.548C132.847 80.6099 133.601 79.6751 134.329 78.7435C135.252 77.6826 136.1 76.6572 136.873 75.6674C136.912 75.5573 137.062 75.2757 137.322 74.8226C137.628 74.3113 137.943 73.8778 138.268 73.522C138.644 73.1599 139.057 72.8724 139.504 72.6595C140.554 72.6359 141.351 72.696 141.895 72.8397C142.491 72.9771 142.922 73.2665 143.186 73.7077ZM170.745 71.9032C171.417 72.6629 171.866 73.5291 172.091 74.5017C172.367 75.468 172.527 76.3432 172.571 77.1275C172.66 77.8535 172.743 78.3171 172.821 78.5182C172.557 80.6563 172.142 83.4972 171.577 87.041C171.006 90.5329 170.753 91.9063 170.82 91.1612C170.773 91.6406 170.645 92.3144 170.436 93.1823C170.174 94.4779 170.013 95.5242 169.953 96.3213C169.912 97.2738 169.658 97.9894 169.19 98.468C168.768 98.8883 168.116 99.3632 167.233 99.8927C166.935 100.035 166.708 100.115 166.552 100.134C165.619 100.249 164.605 99.9259 163.511 99.1652C162.963 98.1271 162.66 97.3747 162.602 96.9079C162.545 96.4412 162.621 95.7738 162.83 94.9059C163.172 92.9688 163.566 90.6042 164.012 87.8119C164.453 84.9678 164.841 82.5513 165.175 80.5624L165.54 78.3856C165.626 77.3748 165.602 76.5355 165.468 75.8677C165.202 75.8477 164.732 75.879 164.058 75.9618C163.332 76.051 162.667 76.2115 162.064 76.4435C161.865 78.2577 161.466 80.1493 160.865 82.1181C160.31 84.0288 159.384 86.7746 158.087 90.3557C157.376 92.2854 156.523 94.1273 155.528 95.8815L154.747 97.2408L152.281 100.307L150.099 102.47C149.819 102.768 149.501 102.965 149.145 103.061C148.794 103.21 148.409 103.283 147.987 103.282C147.572 103.333 147.235 103.375 146.976 103.407C146.276 103.282 145.574 102.921 144.869 102.323C144.216 101.719 143.776 101.352 143.549 101.221L143.046 100.336C142.988 99.869 142.999 99.5255 143.077 99.3054C143.201 99.027 143.49 98.5966 143.945 98.0143C144.232 97.3474 144.66 96.979 145.231 96.9089C145.542 96.8707 145.778 96.868 145.94 96.9007C146.317 96.5386 146.885 96.0214 147.645 95.3491C148.398 94.6248 149.006 93.9975 149.467 93.4671C149.974 92.8785 150.377 92.3025 150.676 91.7394C151.613 89.9397 152.736 87.5119 154.046 84.4558C154.58 83.2321 155.222 81.3897 155.973 78.9286C155.487 78.8303 155.163 78.7648 155.001 78.7321C154.891 78.6929 154.558 78.5496 154.001 78.3021L152.569 75.0035C152.41 73.707 152.934 72.8267 154.14 72.3628C155.048 72.0407 156.394 71.6386 158.177 71.1564C159.455 70.8416 160.521 70.5264 161.378 70.2107C162.026 69.9205 162.843 69.7149 163.829 69.5939C165.281 69.4156 166.635 69.5125 167.891 69.8847C168.986 70.2241 169.937 70.8969 170.745 71.9032ZM209.402 67.6305C209.713 68.0135 209.903 68.4903 209.973 69.0607C210.03 69.5275 209.997 69.9001 209.873 70.1785L208.489 71.7697C208.612 71.9126 208.715 72.1105 208.799 72.3634C208.935 72.61 209.125 72.8761 209.371 73.1618L209.554 74.0079C209.605 74.4228 209.585 74.6885 209.494 74.8049C209.455 74.915 209.406 74.9473 209.348 74.9018C209.729 75.4341 209.977 76.167 210.091 77.1005C210.136 77.4635 210.161 77.8816 210.166 78.3547C210.166 78.7759 210.201 79.0612 210.272 79.2104C210.439 79.7162 210.369 80.6461 210.061 81.9999C209.799 83.2955 209.649 83.9983 209.61 84.1084C209.556 84.9573 209.23 85.9449 208.631 87.0713C208.26 87.9065 208.061 88.431 208.035 88.6448C207.943 89.1825 207.751 89.5483 207.459 89.7421C207.16 89.884 206.988 89.9841 206.943 90.0423C206.104 91.3561 205.016 92.5689 203.678 93.6806C202.678 94.5404 201.831 95.1445 201.137 95.493C200.495 95.835 199.603 96.0761 198.462 96.2162C197.373 96.3499 196.436 96.4386 195.652 96.4823C194.169 95.98 193.107 95.4787 192.467 94.9783C191.878 94.4715 191.283 93.7022 190.683 92.6704C190.425 92.281 190.089 91.4799 189.677 90.2671C189.311 88.996 189.15 88.3314 189.196 88.2732L188.639 85.0251C184.448 86.9083 182.291 87.9892 182.167 88.2676C181.803 88.7334 181.63 89.2547 181.648 89.8316C181.648 90.2528 181.493 91.351 181.184 93.1261C180.988 94.0977 180.87 94.8493 180.829 95.3806C180.874 95.7436 180.766 96.3623 180.505 97.2367C180.289 98.0528 180.012 98.5868 179.675 98.8388C179.058 99.3884 178.438 99.7013 177.816 99.7778C177.557 99.8096 177.21 99.7732 176.776 99.6686C175.799 98.9989 175.103 98.4789 174.689 98.1086C174.269 97.6864 173.914 97.151 173.624 96.5023L173.551 93.9843L172.902 88.6945C172.794 87.8129 172.902 86.9836 173.228 86.2066C173.547 85.3778 174.041 84.6854 174.71 84.1295C175.197 83.8065 175.525 83.4767 175.694 83.1401C175.915 82.7971 176.062 82.2789 176.135 81.5856L177.186 72.1389L177.167 71.9833C177.142 71.7759 177.155 71.4583 177.208 71.0307C177.261 70.6031 177.274 70.2856 177.249 70.0781C177.147 69.2483 177.294 68.5196 177.691 67.8918C178.088 67.264 178.662 66.7987 179.415 66.4957L184.252 68.5866C184.509 69.3973 184.663 70.01 184.714 70.4249C184.791 71.0472 184.705 71.8474 184.456 72.8255C184.28 73.5315 184.092 74.7916 183.894 76.6058L183.469 79.5796L187.895 78.3255L188.206 78.2873C188.621 78.2364 189.046 78.2632 189.48 78.3679L190.008 76.8817C190.484 75.6125 190.96 74.3432 191.435 73.074C191.957 71.7466 192.439 70.7399 192.881 70.0539C193.649 68.5909 194.581 67.3972 195.679 66.4729C196.088 65.9488 196.663 65.4834 197.402 65.0768C198.194 64.6637 199.03 64.4031 199.912 64.2948L201.271 65.0755C201.44 65.1601 202.129 65.6282 203.339 66.4798C203.747 66.377 204.289 66.2843 204.963 66.2015C206 66.0741 206.849 66.1278 207.51 66.3626C208.164 66.5455 208.795 66.9681 209.402 67.6305ZM202.574 82.7613C202.685 82.3791 202.858 81.8578 203.093 81.1973C203.373 80.4785 203.504 79.8307 203.486 79.2539C203.513 78.6188 203.441 77.6012 203.269 76.2009C203.115 75.3775 202.816 74.651 202.37 74.0214C201.976 73.3854 201.355 72.6193 200.508 71.7231C199.605 72.9396 198.932 73.8908 198.49 74.5768C198.099 75.2564 197.689 76.2017 197.259 77.4127L196.554 79.3943C196.033 80.7217 195.7 81.8681 195.555 82.8334C195.404 83.7469 195.451 84.7677 195.695 85.8959C195.854 87.1925 196.101 88.3466 196.436 89.3583C196.85 89.3074 197.256 89.1786 197.652 88.9721C198.586 88.4363 199.417 87.7025 200.145 86.7708C200.918 85.781 201.728 84.4444 202.574 82.7613ZM230.931 78.095C230.306 79.4352 229.195 80.8877 227.597 82.4526C226.045 83.9593 224.269 85.5723 222.269 87.2919C223.038 88.4083 223.757 89.7676 224.428 91.3698C225.144 92.9138 225.604 94.3049 225.809 95.5432C227.229 95.1056 228.121 94.8645 228.484 94.82C228.71 94.9501 229.16 95.1844 229.833 95.5228C230.513 95.9132 231.037 96.3226 231.406 96.7512C231.832 97.2252 232.081 97.7474 232.151 98.3179C232.357 98.7137 232.291 99.2482 231.953 99.9215C231.666 100.588 231.215 100.986 230.599 101.114C230.242 101.211 229.649 101.31 228.819 101.412C227.16 101.615 226.012 101.914 225.376 102.308C225.083 102.923 224.796 103.801 224.515 104.941C224.018 106.897 223.418 108.655 222.715 110.216C222.018 111.828 220.877 113.468 219.292 115.137C218.551 115.965 217.817 116.634 217.09 117.144C216.37 117.707 215.776 118.016 215.309 118.074C213.201 118.912 211.499 119.41 210.202 119.569C209.061 119.709 207.996 119.603 207.005 119.251C205.968 118.957 204.816 118.362 203.548 117.465L200.513 113.968C200.32 113.255 200.204 112.743 200.166 112.431C200.02 111.239 200.324 110.069 201.078 108.924C203.12 105.831 206.148 103.274 210.165 101.254C210.943 100.738 211.592 100.447 212.111 100.384L212.909 99.8119C213.046 99.6372 213.218 99.5371 213.425 99.5116C213.691 99.5317 213.846 99.5126 213.892 99.4543C214.042 98.9621 214.392 98.8138 214.943 99.0094L216.655 98.1674C217.414 97.9163 218.29 97.5456 219.282 97.0552C219.271 96.5302 219.211 95.8269 219.102 94.9453C218.867 93.0265 218.374 91.7973 217.623 91.2577C217.099 90.8483 216.669 90.3483 216.333 89.7579C216.043 89.1091 215.866 88.7361 215.801 88.6387C215.44 87.8408 215.163 87.2958 214.969 87.0038C214.88 86.2777 214.949 85.7691 215.176 85.478C215.449 85.1286 215.809 84.8475 216.257 84.6346C216.757 84.4153 217.13 84.2379 217.376 84.1024C219.135 82.9915 221.012 81.3397 223.006 79.1471C225.046 76.8962 226.603 74.7836 227.676 72.8093C227.93 72.3044 228.028 71.8185 227.971 71.3518C227.895 70.7294 227.594 70.2136 227.07 69.8041C226.54 69.3428 225.883 69.134 225.098 69.1777C223.594 69.3623 221.511 70.8289 218.848 73.5775C218.102 73.9323 217.521 74.1352 217.106 74.1861C216.536 74.2561 216.014 74.0833 215.542 73.6675C215.07 73.2517 214.618 72.5702 214.186 71.623C214.162 70.5731 214.251 69.7988 214.453 69.3002C214.649 68.7498 214.948 68.1866 215.351 67.6107C215.806 67.0284 216.138 66.5139 216.346 66.0672C216.677 65.7633 217.1 65.343 217.613 64.8062C218.178 64.263 218.704 63.83 219.19 63.507C219.729 63.1777 220.335 62.9716 221.01 62.8888C221.217 62.8633 221.496 62.7765 221.846 62.6282C222.242 62.4216 222.621 62.2961 222.984 62.2515C225.798 62.0114 228.135 62.8298 229.998 64.7069C231.679 66.3955 232.628 68.1215 232.845 69.8848C233.087 71.8555 232.449 74.5922 230.931 78.095ZM213.805 112.257C214.598 111.423 215.345 110.436 216.048 109.297C216.75 108.158 217.102 107.167 217.104 106.325L217.185 105.051L214.335 105.638C212.746 106.412 211.276 107.303 209.926 108.311C208.575 109.32 207.656 110.196 207.169 110.94L205.49 113.989C206.61 114.536 207.87 114.723 209.27 114.551C211.034 114.335 212.545 113.57 213.805 112.257ZM254.662 89.0788C254.138 88.6694 253.676 88.1207 253.276 87.4329C252.921 86.6868 252.44 85.5614 251.834 84.0565C251.693 83.7581 251.587 83.3236 251.517 82.7531C251.44 82.1308 251.386 81.69 251.354 81.4307C251.204 81.9229 251.008 82.4734 250.767 83.082C250.52 83.6388 250.253 84.0401 249.968 84.2857C248.921 85.625 247.837 86.6531 246.714 87.37C245.182 88.611 243.819 89.3047 242.626 89.4511C241.174 89.6294 239.847 89.1081 238.644 87.887C236.819 86.7424 235.792 85.2366 235.563 83.3697C235.531 83.1104 235.522 82.6113 235.537 81.8725C235.405 79.941 235.438 78.0681 235.636 76.2539C235.887 74.4333 236.465 72.0723 237.373 69.1709L239.133 64.2169L240.082 61.6525C240.328 61.517 240.737 61.4142 241.307 61.3441C242.137 61.2422 242.934 61.3023 243.698 61.5243C244.463 61.7463 244.903 62.1135 245.018 62.6257C245.199 62.814 245.325 63.1935 245.395 63.7639C245.598 65.4235 245.169 67.7135 244.106 70.634L243.665 72.1885C243.006 74.5331 242.545 76.3532 242.283 77.6488C242.021 78.9444 241.941 80.0071 242.043 80.8368C242.144 81.6666 242.522 82.1729 243.177 82.3558C243.455 82.4796 243.776 82.5192 244.139 82.4746C245.176 82.3472 246.322 81.3906 247.577 79.6046C248.883 77.8123 250.082 74.9277 251.173 70.9508C251.682 69.0984 251.9 67.2292 251.827 65.3431C251.653 64.7853 251.732 64.1439 252.064 63.4188C252.396 62.6937 252.874 62.0823 253.497 61.5846C253.666 61.248 253.923 60.9796 254.267 60.7794C254.605 60.5274 254.838 60.4987 254.967 60.6934L256.202 60.4628C256.351 60.3919 256.613 60.5966 256.988 61.077C257.415 61.551 257.712 61.8303 257.881 61.915C258.45 62.2662 258.812 63.0641 258.964 64.3088C259.175 66.0202 258.842 68.4562 257.967 71.617C257.236 73.8124 256.759 75.5028 256.536 76.6883C256.359 77.8156 256.308 78.901 256.383 79.9446C256.517 81.0337 256.7 81.8798 256.932 82.483C257.209 83.028 257.749 83.5671 258.552 84.1003C259.452 84.5689 259.954 85.8759 260.06 88.0213C260.001 88.397 259.75 88.7173 259.309 88.982C258.868 89.2468 258.31 89.4205 257.636 89.5033C256.495 89.6434 255.504 89.5019 254.662 89.0788ZM290.927 33.2208C292.129 34.863 292.797 36.2287 292.93 37.3178C293.013 37.992 292.973 38.7339 292.809 39.5437C292.645 40.3534 292.39 41.2796 292.045 42.3223C291.744 43.3067 291.539 43.99 291.428 44.3721C290.678 46.4119 289.513 48.5027 287.934 50.6444C286.354 52.7861 284.448 54.8364 282.214 56.7952C280.271 58.9815 278.327 60.7206 276.38 62.0125L275.649 62.497C277.042 62.6944 278.544 63.3523 280.156 64.4705C280.68 64.8799 280.983 65.4218 281.066 66.0959C281.085 66.2515 281.068 66.5431 281.015 66.9707C281.04 67.5994 281.061 68.2022 281.08 68.779C281.091 69.304 281.126 69.7999 281.183 70.2666C280.994 70.8689 280.82 71.8115 280.662 73.0944C280.497 74.3254 280.291 75.4299 280.042 76.4079C279.794 77.386 279.399 78.461 278.859 79.6328C278.084 81.4652 277.423 82.7308 276.877 83.4295C276.377 84.07 275.292 85.0981 273.624 86.5138L271.617 88.1814C271.462 88.2005 270.917 88.2674 269.984 88.382C269.057 88.5485 268.069 88.4329 267.02 88.0353C266.029 87.6832 265.158 87.0267 264.409 86.0659C263.898 85.339 263.43 84.5278 263.005 83.6325C262.624 82.679 262.386 81.8133 262.291 81.0354C262.221 80.4649 262.244 80.0146 262.362 79.6843C262.597 76.0232 262.82 73.3373 263.031 71.6269C263.235 69.8645 263.374 68.8473 263.446 68.5753L263.945 66.8557C264.095 66.3635 264.223 65.9004 264.327 65.4664C264.426 64.9806 264.443 64.4783 264.379 63.9597L264.196 63.1136C263.933 61.8298 264.198 60.7708 264.991 59.9365C265.731 59.1085 266.235 58.2833 266.503 57.4609C266.758 56.5347 267.179 55.2459 267.765 53.5946C268.404 51.9369 268.899 50.8232 269.25 50.2537L270.539 47.8845C271.086 46.7645 271.554 45.8647 271.944 45.1851C272.38 44.4472 272.9 43.7517 273.504 43.0984C273.948 41.9912 274.604 40.9103 275.475 39.8558C276.391 38.7431 277.48 37.5303 278.74 36.2175C279.766 35.1439 280.393 34.4615 280.62 34.1704C280.848 33.8793 281.312 33.5854 282.012 33.2888C282.765 32.9858 283.495 32.712 284.202 32.4673L285.856 31.7904C286.291 31.4738 287.055 31.4852 288.15 31.8246C289.29 32.1057 290.216 32.5711 290.927 33.2208ZM286.329 42.0765C287.033 40.0949 287.315 38.5336 287.175 37.3927C287.124 36.9778 287.037 36.699 286.915 36.5561C286.233 37.0083 284.521 38.9294 281.779 42.3193C276.502 49.0738 273.481 53.8403 272.717 56.619L273.271 56.6299C275.496 55.4617 277.522 53.9496 279.347 52.0936C281.217 50.1794 282.754 48.3324 283.957 46.5528C285.153 44.7214 285.944 43.2293 286.329 42.0765ZM274.466 70.2228C274.249 68.4595 274.087 67.3477 273.977 66.8873C273.868 66.427 273.643 65.8756 273.301 65.2332L273.527 63.863L272.184 64.5017C271.691 64.7728 271.373 65.1804 271.229 65.7245C271.163 66.0484 271.078 66.638 270.972 67.4932C270.867 68.3485 270.677 68.9508 270.405 69.3001C270.223 69.533 269.985 71.2467 269.693 74.4411C269.401 77.6355 269.303 79.6217 269.398 80.3996C269.456 80.8663 269.666 81.0774 270.029 81.0329C270.288 81.001 270.58 80.8072 270.905 80.4515C271.282 80.0894 271.639 79.5717 271.978 78.8984C272.765 77.591 273.362 75.5962 273.77 72.9141C274.104 71.3464 274.336 70.4493 274.466 70.2228ZM313.854 57.0164C313.742 57.8198 313.501 58.6391 313.13 59.4743C312.758 60.3095 312.514 60.8922 312.397 61.2225C312.129 62.045 311.92 62.7023 311.77 63.1945C311.614 63.6349 311.503 64.017 311.437 64.3409C312.532 64.6803 313.139 65.7639 313.258 67.5918L312.545 68.8637L310.161 70.0251C310.062 70.9322 309.999 71.7032 309.971 72.3383C309.982 73.2845 309.83 74.6193 309.515 76.3425L309.268 78.189C309.111 79.0506 308.841 79.6365 308.458 79.9467C308.126 80.2506 307.581 80.5281 306.823 80.7792C306.499 80.7137 306.039 80.6122 305.443 80.4748C304.847 80.3374 304.41 80.2069 304.131 80.0831C303.853 79.9594 303.568 79.7838 303.277 79.5563C302.909 79.1278 302.692 78.6542 302.629 78.1356C302.571 77.6688 302.648 76.7909 302.858 75.5016C303.232 73.4027 303.485 71.8186 303.617 70.7496L302.323 71.1453C301.552 71.2927 300.965 71.4437 300.563 71.5984C300.154 71.7012 299.849 71.7913 299.648 71.8686C299.259 72.127 298.442 72.3326 297.197 72.4854C296.16 72.6128 295.243 72.6464 294.446 72.5863C294.374 72.8584 294.289 73.2373 294.191 73.7232C294.086 74.1572 293.971 74.724 293.847 75.4236C293.663 76.4991 293.596 77.2442 293.647 77.6591L293.594 79.7977C293.541 80.2253 293.524 80.9381 293.541 81.9362C293.623 83.0317 293.465 83.8933 293.069 84.521C292.678 85.2007 292.12 85.5851 291.394 85.6742C290.201 85.8207 288.731 85.2115 286.985 83.8467L286.54 82.7958L287.049 76.6531C287.114 76.3292 287.177 75.9794 287.236 75.6036C287.295 75.2279 287.325 74.8294 287.326 74.4081L287.7 72.3092L288.26 69.7926C288.718 67.5253 289.124 65.8962 289.476 64.9054C289.594 64.1539 289.755 63.3182 289.957 62.3984C290.212 61.4722 290.395 60.818 290.506 60.4359C290.591 60.2676 290.794 59.3478 291.115 57.6764C291.43 55.9532 291.656 54.7936 291.793 54.1977C292.081 53.1095 292.769 52.4986 293.858 52.3649C294.941 52.1793 295.938 52.3727 296.851 52.945C297.757 53.4654 298.297 54.2151 298.47 55.1941C298.495 55.4015 298.514 55.7677 298.525 56.2927C298.531 56.7658 298.491 57.0865 298.407 57.2549L295.859 66.7275C296.319 66.6183 296.88 66.4705 297.541 66.284C298.196 66.0457 298.679 65.9074 298.991 65.8692C299.698 65.6244 300.596 65.4352 301.685 65.3015C302.774 65.1678 303.639 65.1405 304.28 65.2197C304.489 64.7729 304.708 63.9828 304.937 62.8491C304.983 62.3696 305.134 61.6668 305.389 60.7406C305.638 59.3413 306.049 57.9747 306.622 56.6409C306.655 56.479 306.682 56.2651 306.702 55.9995C306.715 55.6819 306.986 54.8854 307.514 53.6098C308.293 53.0931 309.019 52.7933 309.693 52.7105C310.73 52.5832 311.653 52.812 312.462 53.397C313.323 53.9757 313.814 54.7577 313.935 55.7431C313.979 56.1061 313.953 56.5305 313.854 57.0164ZM322.971 80.2968C322.348 80.3732 321.843 80.33 321.454 80.1671C321.066 80.0042 320.5 79.6789 319.755 79.1913C318.584 78.2295 317.644 77.2132 316.933 76.1424C316.216 75.0196 315.881 74.0079 315.929 73.1071C316.04 72.725 316.047 72.3556 315.951 71.999C315.906 71.6359 315.877 71.4026 315.865 71.2988C315.632 71.1169 315.512 71 315.506 70.9481C315.493 70.8444 315.535 70.7602 315.633 70.6956C315.724 70.5792 315.789 70.4659 315.828 70.3558C316.139 70.3176 316.208 70.0196 316.034 69.4619C315.879 69.0597 315.949 68.1299 316.244 66.6724C316.539 65.2148 316.976 63.8451 317.556 62.5631C318.012 61.5596 318.698 60.2909 319.615 58.7569C320.584 57.2166 321.465 56.0293 322.257 55.195C324.577 52.6466 326.745 51.0117 328.762 50.2902C329.767 49.9035 330.763 49.6497 331.748 49.5287C333.252 49.3441 334.47 49.6157 335.401 50.3436C336.6 50.6702 337.512 51.2425 338.139 52.0605C338.766 52.8784 339.246 54.0039 339.58 55.4369C339.67 55.7417 339.76 56.2571 339.849 56.9832C340.32 60.8209 339.358 64.9924 336.964 69.4978C335.981 71.3557 334.957 72.8765 333.891 74.0601C332.826 75.2438 331.501 76.4593 329.917 77.7066C329.06 78.4436 328.126 78.9795 327.114 79.3143C326.102 79.649 324.721 79.9766 322.971 80.2968ZM329.74 69.832C330.617 68.8294 331.209 67.8618 331.516 66.9293C331.868 65.9385 332.319 64.2512 332.868 61.8674C333.122 61.3625 333.163 60.4099 332.991 59.0097C332.838 57.765 332.571 57.0872 332.189 56.9762C331.904 56.8006 331.58 56.7351 331.217 56.7796C330.75 56.8369 330.043 57.2923 329.095 58.1457C327.471 59.9244 326.141 61.7458 325.107 63.6101C324.118 65.4161 323.524 67.4368 323.324 69.6722C323.298 69.886 323.31 70.2004 323.361 70.6153C323.578 72.3785 324.308 73.1837 325.553 73.0309C326.746 72.8845 328.141 71.8182 329.74 69.832Z" fill="white"/>
<path d="M101.1 190.832C101.933 190.951 103.034 191.07 104.403 191.189C105.831 191.249 107.14 191.279 108.33 191.279C111.306 191.279 113.626 190.922 115.293 190.208C116.959 189.434 117.792 188.065 117.792 186.102C117.792 184.197 117.018 182.888 115.471 182.174C113.983 181.401 111.782 181.014 108.866 181.014H101.1V190.832ZM108.598 172.088C110.8 172.088 112.585 171.82 113.954 171.284C115.322 170.689 116.007 169.44 116.007 167.535C116.007 165.75 115.233 164.53 113.686 163.876C112.139 163.221 110.115 162.894 107.616 162.894C106.783 162.894 105.682 162.953 104.314 163.072C103.004 163.132 101.933 163.221 101.1 163.34V172.088H108.598ZM108.152 201.544C106.486 201.544 104.7 201.484 102.796 201.365C100.892 201.246 99.0174 201.068 97.1727 200.83C95.328 200.651 93.5725 200.443 91.9063 200.205C90.2996 199.907 88.931 199.639 87.8003 199.401V154.414C88.931 154.176 90.2996 153.968 91.9063 153.789C93.5725 153.551 95.328 153.343 97.1727 153.165C99.0174 152.986 100.892 152.867 102.796 152.807C104.7 152.688 106.486 152.629 108.152 152.629C112.02 152.629 115.263 153.016 117.881 153.789C120.559 154.563 122.701 155.575 124.308 156.824C125.974 158.074 127.164 159.472 127.878 161.019C128.592 162.567 128.949 164.114 128.949 165.661C128.949 167.744 128.444 169.648 127.432 171.374C126.42 173.099 125.141 174.349 123.594 175.123C124.427 175.48 125.26 175.985 126.093 176.64C126.986 177.295 127.789 178.098 128.503 179.05C129.217 179.943 129.782 181.044 130.199 182.353C130.675 183.602 130.913 185.06 130.913 186.726C130.913 188.631 130.526 190.475 129.753 192.261C129.039 194.046 127.789 195.623 126.004 196.991C124.219 198.36 121.868 199.461 118.952 200.294C116.036 201.127 112.436 201.544 108.152 201.544ZM149.202 188.869H158.128C160.33 185.06 162.055 181.282 163.305 177.533C164.555 173.784 165.477 169.975 166.072 166.107C166.727 162.239 167.113 158.252 167.232 154.146C167.411 150.04 167.5 145.726 167.5 141.204V138.794H208.381V188.869H219.003V217.164H205.614V200.651H162.591V217.164H149.202V188.869ZM180.621 150.576C180.502 153.789 180.294 157.092 179.997 160.484C179.699 163.876 179.253 167.238 178.658 170.57C178.063 173.843 177.259 177.057 176.248 180.21C175.296 183.305 174.076 186.191 172.588 188.869H194.814V150.576H180.621ZM265.353 153.7V200.651H251.964C251.964 197.676 251.994 194.73 252.053 191.814C252.113 188.839 252.172 186.102 252.232 183.602C252.291 181.103 252.351 178.931 252.41 177.086C252.529 175.182 252.589 173.784 252.589 172.891C250.863 175.331 249.138 177.8 247.412 180.3C245.686 182.799 244.02 185.269 242.413 187.708C240.866 190.089 239.378 192.38 237.95 194.581C236.582 196.783 235.362 198.806 234.291 200.651H222.597V153.7H235.897C235.897 156.675 235.868 159.532 235.808 162.269C235.808 164.947 235.778 167.387 235.719 169.588C235.659 171.79 235.6 173.724 235.54 175.39C235.481 176.997 235.451 178.247 235.451 179.139C239.021 173.903 242.294 169.202 245.27 165.036C248.304 160.871 251.25 157.092 254.106 153.7H265.353ZM286.699 170.124C288.008 168.874 289.377 167.506 290.805 166.018C292.293 164.53 293.721 163.072 295.089 161.644C296.458 160.157 297.767 158.728 299.017 157.36C300.267 155.991 301.367 154.771 302.32 153.7H318.476C317.286 154.95 315.798 156.497 314.013 158.342C312.287 160.186 310.442 162.12 308.479 164.144C306.515 166.107 304.521 168.071 302.498 170.035C300.534 171.998 298.66 173.754 296.875 175.301C298.66 176.67 300.564 178.366 302.587 180.389C304.611 182.412 306.574 184.584 308.479 186.905C310.442 189.226 312.287 191.576 314.013 193.957C315.798 196.337 317.315 198.568 318.565 200.651H303.391C302.32 199.044 301.1 197.378 299.731 195.652C298.362 193.867 296.934 192.142 295.447 190.475C293.959 188.75 292.441 187.143 290.894 185.655C289.407 184.168 288.008 182.888 286.699 181.817V200.651H273.399V153.7H286.699V170.124ZM317.437 177.176C317.437 173.784 317.972 170.6 319.043 167.625C320.174 164.59 321.781 161.972 323.863 159.77C325.946 157.509 328.475 155.723 331.451 154.414C334.426 153.105 337.818 152.45 341.626 152.45C344.126 152.45 346.417 152.688 348.499 153.165C350.582 153.581 352.605 154.206 354.569 155.039L351.802 165.661C350.552 165.185 349.184 164.768 347.696 164.411C346.208 164.054 344.542 163.876 342.697 163.876C338.77 163.876 335.824 165.096 333.861 167.535C331.956 169.975 331.004 173.189 331.004 177.176C331.004 181.401 331.897 184.673 333.682 186.994C335.527 189.315 338.71 190.475 343.233 190.475C344.84 190.475 346.565 190.327 348.41 190.029C350.255 189.732 351.951 189.255 353.498 188.601L355.372 199.491C353.825 200.145 351.891 200.711 349.57 201.187C347.25 201.663 344.691 201.901 341.894 201.901C337.61 201.901 333.92 201.276 330.826 200.026C327.731 198.717 325.173 196.962 323.149 194.76C321.186 192.558 319.728 189.97 318.776 186.994C317.883 183.959 317.437 180.686 317.437 177.176ZM402.591 153.7V200.651H389.202C389.202 197.676 389.232 194.73 389.291 191.814C389.351 188.839 389.41 186.102 389.47 183.602C389.529 181.103 389.589 178.931 389.648 177.086C389.767 175.182 389.827 173.784 389.827 172.891C388.101 175.331 386.375 177.8 384.65 180.3C382.924 182.799 381.258 185.269 379.651 187.708C378.104 190.089 376.616 192.38 375.188 194.581C373.82 196.783 372.6 198.806 371.529 200.651H359.835V153.7H373.135C373.135 156.675 373.105 159.532 373.046 162.269C373.046 164.947 373.016 167.387 372.957 169.588C372.897 171.79 372.838 173.724 372.778 175.39C372.719 176.997 372.689 178.247 372.689 179.139C376.259 173.903 379.532 169.202 382.508 165.036C385.542 160.871 388.488 157.092 391.344 153.7H402.591Z" fill="#78BE20"/>
</svg>
